<svg width="395" height="381" viewBox="0 0 395 381" fill="none" xmlns="http://www.w3.org/2000/svg">
<mask id="mask0_12_897" style="mask-type:alpha" maskUnits="userSpaceOnUse" x="7" y="0" width="381" height="376">
<rect x="7.01318" width="380.45" height="376" rx="15" fill="#292929"/>
</mask>
<g mask="url(#mask0_12_897)">
<rect x="-0.5" y="0.5" width="293.793" height="511.828" rx="41.5" transform="matrix(-1 0 0 1 343.078 70.0829)" fill="#161616" stroke="white"/>
</g>
<path d="M157.55 121.254H235.813C244.611 121.254 251.747 113.787 251.747 104.58C251.747 95.3741 244.611 87.8817 235.813 87.8817H157.55C148.753 87.8817 141.617 95.3496 141.617 104.58C141.617 113.787 148.753 121.254 157.55 121.254Z" fill="#D8E1F2"/>
<g filter="url(#filter0_d_12_897)">
<rect x="48.1729" y="155.74" width="298.13" height="102.343" rx="18" fill="#161616"/>
<rect x="84.238" y="194.911" width="24" height="24" rx="6" fill="url(#paint0_linear_12_897)"/>
<path d="M92.738 207.411L94.738 209.411L99.738 204.411" stroke="#0D0D0D" stroke-width="1.5" stroke-linecap="round" stroke-linejoin="round"/>
<path d="M126.955 197.911V189.591H124.381V188.226H131.011V189.591H128.476V197.911H126.955ZM134.494 198.067C133.818 198.067 133.198 197.907 132.635 197.586C132.08 197.266 131.638 196.828 131.309 196.273C130.98 195.719 130.815 195.09 130.815 194.388C130.815 193.678 130.98 193.049 131.309 192.503C131.638 191.949 132.08 191.515 132.635 191.203C133.19 190.883 133.809 190.722 134.494 190.722C135.187 190.722 135.807 190.883 136.353 191.203C136.908 191.515 137.345 191.949 137.666 192.503C137.995 193.049 138.16 193.678 138.16 194.388C138.16 195.099 137.995 195.732 137.666 196.286C137.337 196.841 136.895 197.279 136.34 197.599C135.785 197.911 135.17 198.067 134.494 198.067ZM134.494 196.702C134.91 196.702 135.278 196.603 135.599 196.403C135.92 196.204 136.171 195.931 136.353 195.584C136.544 195.229 136.639 194.83 136.639 194.388C136.639 193.946 136.544 193.552 136.353 193.205C136.171 192.859 135.92 192.586 135.599 192.386C135.278 192.187 134.91 192.087 134.494 192.087C134.087 192.087 133.718 192.187 133.389 192.386C133.068 192.586 132.813 192.859 132.622 193.205C132.44 193.552 132.349 193.946 132.349 194.388C132.349 194.83 132.44 195.229 132.622 195.584C132.813 195.931 133.068 196.204 133.389 196.403C133.718 196.603 134.087 196.702 134.494 196.702ZM141.7 198.067C141.223 198.067 140.803 197.985 140.439 197.82C140.084 197.647 139.806 197.413 139.607 197.118C139.408 196.815 139.308 196.46 139.308 196.052C139.308 195.671 139.39 195.329 139.555 195.025C139.728 194.722 139.993 194.466 140.348 194.258C140.703 194.05 141.15 193.903 141.687 193.816L144.131 193.413V194.57L141.973 194.947C141.583 195.017 141.297 195.142 141.115 195.324C140.933 195.498 140.842 195.723 140.842 196C140.842 196.269 140.942 196.49 141.141 196.663C141.349 196.828 141.613 196.91 141.934 196.91C142.333 196.91 142.679 196.824 142.974 196.65C143.277 196.477 143.511 196.247 143.676 195.961C143.841 195.667 143.923 195.342 143.923 194.986V193.179C143.923 192.833 143.793 192.551 143.533 192.334C143.282 192.109 142.944 191.996 142.519 191.996C142.129 191.996 141.787 192.1 141.492 192.308C141.206 192.508 140.994 192.768 140.855 193.088L139.633 192.477C139.763 192.131 139.975 191.827 140.27 191.567C140.565 191.299 140.907 191.091 141.297 190.943C141.696 190.796 142.116 190.722 142.558 190.722C143.113 190.722 143.602 190.826 144.027 191.034C144.46 191.242 144.794 191.533 145.028 191.905C145.271 192.269 145.392 192.694 145.392 193.179V197.911H143.988V196.637L144.287 196.676C144.122 196.962 143.91 197.209 143.65 197.417C143.399 197.625 143.108 197.786 142.779 197.898C142.458 198.011 142.099 198.067 141.7 198.067ZM149.71 198.067C148.99 198.067 148.358 197.89 147.812 197.534C147.274 197.179 146.897 196.702 146.681 196.104L147.812 195.571C148.002 195.97 148.262 196.286 148.592 196.52C148.93 196.754 149.302 196.871 149.71 196.871C150.056 196.871 150.338 196.793 150.555 196.637C150.771 196.481 150.88 196.269 150.88 196C150.88 195.827 150.832 195.688 150.737 195.584C150.641 195.472 150.52 195.381 150.373 195.311C150.234 195.242 150.091 195.19 149.944 195.155L148.839 194.843C148.232 194.67 147.777 194.41 147.474 194.063C147.179 193.708 147.032 193.296 147.032 192.828C147.032 192.404 147.14 192.035 147.357 191.723C147.573 191.403 147.872 191.156 148.254 190.982C148.635 190.809 149.064 190.722 149.541 190.722C150.182 190.722 150.754 190.883 151.257 191.203C151.759 191.515 152.115 191.953 152.323 192.516L151.192 193.049C151.053 192.711 150.832 192.443 150.529 192.243C150.234 192.044 149.9 191.944 149.528 191.944C149.207 191.944 148.951 192.022 148.761 192.178C148.57 192.326 148.475 192.521 148.475 192.763C148.475 192.928 148.518 193.067 148.605 193.179C148.691 193.283 148.804 193.37 148.943 193.439C149.081 193.5 149.224 193.552 149.372 193.595L150.516 193.933C151.096 194.098 151.543 194.358 151.855 194.713C152.167 195.06 152.323 195.476 152.323 195.961C152.323 196.377 152.21 196.746 151.985 197.066C151.768 197.378 151.465 197.625 151.075 197.807C150.685 197.981 150.23 198.067 149.71 198.067ZM156.804 197.989C156.067 197.989 155.495 197.781 155.088 197.365C154.681 196.949 154.477 196.364 154.477 195.61V192.204H153.242V190.878H153.437C153.766 190.878 154.022 190.783 154.204 190.592C154.386 190.402 154.477 190.142 154.477 189.812V189.266H155.946V190.878H157.545V192.204H155.946V195.545C155.946 195.788 155.985 195.996 156.063 196.169C156.141 196.334 156.267 196.464 156.44 196.559C156.613 196.646 156.839 196.689 157.116 196.689C157.185 196.689 157.263 196.685 157.35 196.676C157.437 196.668 157.519 196.659 157.597 196.65V197.911C157.476 197.929 157.341 197.946 157.194 197.963C157.047 197.981 156.917 197.989 156.804 197.989ZM163.162 197.911V189.591H160.588V188.226H167.218V189.591H164.683V197.911H163.162ZM168.222 197.911V190.878H169.691V197.911H168.222ZM168.222 189.916V188.226H169.691V189.916H168.222ZM174.451 197.989C173.714 197.989 173.142 197.781 172.735 197.365C172.327 196.949 172.124 196.364 172.124 195.61V192.204H170.889V190.878H171.084C171.413 190.878 171.669 190.783 171.851 190.592C172.033 190.402 172.124 190.142 172.124 189.812V189.266H173.593V190.878H175.192V192.204H173.593V195.545C173.593 195.788 173.632 195.996 173.71 196.169C173.788 196.334 173.913 196.464 174.087 196.559C174.26 196.646 174.485 196.689 174.763 196.689C174.832 196.689 174.91 196.685 174.997 196.676C175.083 196.668 175.166 196.659 175.244 196.65V197.911C175.122 197.929 174.988 197.946 174.841 197.963C174.693 197.981 174.563 197.989 174.451 197.989ZM176.677 197.911V188.07H178.146V197.911H176.677ZM183.166 198.067C182.464 198.067 181.84 197.907 181.294 197.586C180.756 197.257 180.336 196.815 180.033 196.26C179.729 195.697 179.578 195.069 179.578 194.375C179.578 193.665 179.729 193.036 180.033 192.49C180.345 191.944 180.761 191.515 181.281 191.203C181.801 190.883 182.39 190.722 183.049 190.722C183.577 190.722 184.05 190.813 184.466 190.995C184.882 191.177 185.233 191.429 185.519 191.749C185.805 192.061 186.021 192.421 186.169 192.828C186.325 193.236 186.403 193.669 186.403 194.128C186.403 194.241 186.398 194.358 186.39 194.479C186.381 194.601 186.364 194.713 186.338 194.817H180.735V193.647H185.506L184.804 194.18C184.89 193.756 184.86 193.379 184.713 193.049C184.574 192.711 184.357 192.447 184.063 192.256C183.777 192.057 183.439 191.957 183.049 191.957C182.659 191.957 182.312 192.057 182.009 192.256C181.705 192.447 181.471 192.724 181.307 193.088C181.142 193.444 181.077 193.877 181.112 194.388C181.068 194.865 181.133 195.281 181.307 195.636C181.489 195.992 181.74 196.269 182.061 196.468C182.39 196.668 182.763 196.767 183.179 196.767C183.603 196.767 183.963 196.672 184.258 196.481C184.561 196.291 184.799 196.044 184.973 195.74L186.169 196.325C186.03 196.655 185.813 196.954 185.519 197.222C185.233 197.482 184.886 197.69 184.479 197.846C184.08 197.994 183.642 198.067 183.166 198.067Z" fill="#454545"/>
<path d="M127.163 225.911L124.381 216.226H125.434L127.839 224.897H127.618L130.088 216.226H131.193L133.65 224.897H133.416L135.834 216.226H136.887L134.105 225.911H133L130.517 217.201H130.751L128.268 225.911H127.163ZM137.515 225.911V218.943H138.49V220.087L138.36 219.918C138.525 219.589 138.772 219.329 139.101 219.138C139.439 218.948 139.847 218.852 140.323 218.852H140.765V219.827H140.154C139.652 219.827 139.249 219.983 138.945 220.295C138.642 220.607 138.49 221.049 138.49 221.621V225.911H137.515ZM141.908 225.911V218.943H142.883V225.911H141.908ZM141.908 217.656V216.226H142.883V217.656H141.908ZM147.544 225.989C146.92 225.989 146.439 225.807 146.101 225.443C145.763 225.079 145.594 224.559 145.594 223.883V219.918H144.307V218.943H144.632C144.926 218.943 145.16 218.848 145.334 218.657C145.507 218.458 145.594 218.211 145.594 217.916V217.331H146.569V218.943H148.103V219.918H146.569V223.883C146.569 224.117 146.603 224.325 146.673 224.507C146.742 224.681 146.859 224.819 147.024 224.923C147.197 225.027 147.427 225.079 147.713 225.079C147.782 225.079 147.864 225.075 147.96 225.066C148.055 225.058 148.137 225.049 148.207 225.04V225.911C148.103 225.937 147.986 225.955 147.856 225.963C147.726 225.981 147.622 225.989 147.544 225.989ZM152.837 226.067C152.187 226.067 151.597 225.911 151.069 225.599C150.549 225.279 150.137 224.841 149.834 224.286C149.53 223.732 149.379 223.103 149.379 222.401C149.379 221.699 149.526 221.08 149.821 220.542C150.115 219.996 150.514 219.567 151.017 219.255C151.528 218.943 152.1 218.787 152.733 218.787C153.235 218.787 153.682 218.883 154.072 219.073C154.47 219.255 154.808 219.507 155.086 219.827C155.363 220.139 155.575 220.495 155.723 220.893C155.87 221.283 155.944 221.686 155.944 222.102C155.944 222.189 155.939 222.289 155.931 222.401C155.922 222.505 155.909 222.614 155.892 222.726H150.003V221.816H155.333L154.865 222.206C154.943 221.73 154.886 221.305 154.696 220.932C154.514 220.551 154.249 220.252 153.903 220.035C153.556 219.81 153.166 219.697 152.733 219.697C152.299 219.697 151.896 219.81 151.524 220.035C151.16 220.261 150.874 220.577 150.666 220.984C150.458 221.383 150.375 221.86 150.419 222.414C150.375 222.969 150.462 223.454 150.679 223.87C150.904 224.278 151.207 224.594 151.589 224.819C151.979 225.045 152.395 225.157 152.837 225.157C153.348 225.157 153.777 225.036 154.124 224.793C154.47 224.551 154.752 224.247 154.969 223.883L155.801 224.325C155.662 224.637 155.45 224.928 155.164 225.196C154.878 225.456 154.535 225.669 154.137 225.833C153.747 225.989 153.313 226.067 152.837 226.067ZM160.015 228.771C159.876 228.771 159.733 228.758 159.586 228.732C159.447 228.715 159.309 228.68 159.17 228.628V227.718C159.257 227.727 159.365 227.74 159.495 227.757C159.634 227.783 159.772 227.796 159.911 227.796C160.336 227.796 160.661 227.705 160.886 227.523C161.111 227.35 161.332 227.012 161.549 226.509L161.991 225.469L161.965 226.327L159.014 218.943H160.067L162.485 225.04H162.212L164.617 218.943H165.696L162.511 226.795C162.372 227.133 162.195 227.454 161.978 227.757C161.77 228.061 161.506 228.303 161.185 228.485C160.864 228.676 160.474 228.771 160.015 228.771ZM169.978 226.067C169.319 226.067 168.721 225.911 168.184 225.599C167.646 225.279 167.217 224.845 166.897 224.299C166.585 223.745 166.429 223.116 166.429 222.414C166.429 221.721 166.585 221.101 166.897 220.555C167.209 220.009 167.629 219.58 168.158 219.268C168.695 218.948 169.302 218.787 169.978 218.787C170.654 218.787 171.256 218.943 171.785 219.255C172.322 219.567 172.742 219.996 173.046 220.542C173.358 221.088 173.514 221.712 173.514 222.414C173.514 223.125 173.353 223.758 173.033 224.312C172.712 224.858 172.283 225.287 171.746 225.599C171.217 225.911 170.628 226.067 169.978 226.067ZM169.978 225.092C170.446 225.092 170.866 224.975 171.239 224.741C171.62 224.507 171.919 224.187 172.136 223.779C172.361 223.372 172.474 222.917 172.474 222.414C172.474 221.912 172.361 221.461 172.136 221.062C171.919 220.664 171.62 220.347 171.239 220.113C170.866 219.879 170.446 219.762 169.978 219.762C169.51 219.762 169.085 219.879 168.704 220.113C168.331 220.347 168.032 220.664 167.807 221.062C167.581 221.461 167.469 221.912 167.469 222.414C167.469 222.917 167.581 223.372 167.807 223.779C168.032 224.187 168.331 224.507 168.704 224.741C169.085 224.975 169.51 225.092 169.978 225.092ZM177.703 226.067C177.218 226.067 176.776 225.955 176.377 225.729C175.979 225.495 175.662 225.175 175.428 224.767C175.203 224.351 175.09 223.875 175.09 223.337V218.943H176.065V223.22C176.065 223.593 176.139 223.922 176.286 224.208C176.442 224.486 176.655 224.702 176.923 224.858C177.201 225.014 177.517 225.092 177.872 225.092C178.228 225.092 178.544 225.014 178.821 224.858C179.099 224.694 179.315 224.464 179.471 224.169C179.627 223.866 179.705 223.506 179.705 223.09V218.943H180.68V225.911H179.705V224.559L179.926 224.611C179.762 225.062 179.48 225.417 179.081 225.677C178.683 225.937 178.223 226.067 177.703 226.067ZM182.685 225.911V218.943H183.66V220.087L183.53 219.918C183.695 219.589 183.942 219.329 184.271 219.138C184.609 218.948 185.017 218.852 185.493 218.852H185.935V219.827H185.324C184.822 219.827 184.419 219.983 184.115 220.295C183.812 220.607 183.66 221.049 183.66 221.621V225.911H182.685ZM189.287 225.911V218.943H190.262V220.269L190.106 220.074C190.297 219.667 190.578 219.351 190.951 219.125C191.332 218.9 191.748 218.787 192.199 218.787C192.736 218.787 193.222 218.939 193.655 219.242C194.088 219.546 194.396 219.94 194.578 220.425L194.305 220.438C194.478 219.901 194.777 219.494 195.202 219.216C195.635 218.93 196.112 218.787 196.632 218.787C197.1 218.787 197.529 218.9 197.919 219.125C198.318 219.351 198.634 219.663 198.868 220.061C199.111 220.451 199.232 220.893 199.232 221.387V225.911H198.257V221.764C198.257 221.34 198.179 220.98 198.023 220.685C197.876 220.391 197.672 220.165 197.412 220.009C197.152 219.845 196.853 219.762 196.515 219.762C196.186 219.762 195.887 219.845 195.618 220.009C195.349 220.165 195.137 220.395 194.981 220.698C194.825 220.993 194.747 221.348 194.747 221.764V225.911H193.772V221.764C193.772 221.34 193.694 220.98 193.538 220.685C193.391 220.391 193.187 220.165 192.927 220.009C192.667 219.845 192.368 219.762 192.03 219.762C191.692 219.762 191.389 219.845 191.12 220.009C190.86 220.165 190.652 220.395 190.496 220.698C190.34 220.993 190.262 221.348 190.262 221.764V225.911H189.287ZM204.266 226.067C203.616 226.067 203.026 225.911 202.498 225.599C201.978 225.279 201.566 224.841 201.263 224.286C200.959 223.732 200.808 223.103 200.808 222.401C200.808 221.699 200.955 221.08 201.25 220.542C201.544 219.996 201.943 219.567 202.446 219.255C202.957 218.943 203.529 218.787 204.162 218.787C204.664 218.787 205.111 218.883 205.501 219.073C205.899 219.255 206.237 219.507 206.515 219.827C206.792 220.139 207.004 220.495 207.152 220.893C207.299 221.283 207.373 221.686 207.373 222.102C207.373 222.189 207.368 222.289 207.36 222.401C207.351 222.505 207.338 222.614 207.321 222.726H201.432V221.816H206.762L206.294 222.206C206.372 221.73 206.315 221.305 206.125 220.932C205.943 220.551 205.678 220.252 205.332 220.035C204.985 219.81 204.595 219.697 204.162 219.697C203.728 219.697 203.325 219.81 202.953 220.035C202.589 220.261 202.303 220.577 202.095 220.984C201.887 221.383 201.804 221.86 201.848 222.414C201.804 222.969 201.891 223.454 202.108 223.87C202.333 224.278 202.636 224.594 203.018 224.819C203.408 225.045 203.824 225.157 204.266 225.157C204.777 225.157 205.206 225.036 205.553 224.793C205.899 224.551 206.181 224.247 206.398 223.883L207.23 224.325C207.091 224.637 206.879 224.928 206.593 225.196C206.307 225.456 205.964 225.669 205.566 225.833C205.176 225.989 204.742 226.067 204.266 226.067ZM211.51 226.067C210.842 226.067 210.257 225.898 209.755 225.56C209.252 225.222 208.888 224.763 208.663 224.182L209.482 223.792C209.681 224.217 209.958 224.555 210.314 224.806C210.678 225.058 211.076 225.183 211.51 225.183C211.926 225.183 212.277 225.084 212.563 224.884C212.849 224.676 212.992 224.408 212.992 224.078C212.992 223.836 212.922 223.645 212.784 223.506C212.645 223.359 212.485 223.246 212.303 223.168C212.121 223.09 211.96 223.034 211.822 222.999L210.821 222.713C210.179 222.531 209.716 222.276 209.43 221.946C209.144 221.617 209.001 221.236 209.001 220.802C209.001 220.395 209.105 220.04 209.313 219.736C209.521 219.433 209.802 219.199 210.158 219.034C210.513 218.87 210.907 218.787 211.341 218.787C211.93 218.787 212.463 218.943 212.94 219.255C213.425 219.559 213.767 219.983 213.967 220.529L213.135 220.919C212.961 220.529 212.71 220.226 212.381 220.009C212.06 219.784 211.7 219.671 211.302 219.671C210.912 219.671 210.6 219.771 210.366 219.97C210.132 220.17 210.015 220.421 210.015 220.724C210.015 220.958 210.075 221.145 210.197 221.283C210.318 221.422 210.457 221.526 210.613 221.595C210.777 221.665 210.92 221.717 211.042 221.751L212.199 222.089C212.762 222.254 213.2 222.51 213.512 222.856C213.832 223.203 213.993 223.61 213.993 224.078C213.993 224.46 213.884 224.802 213.668 225.105C213.46 225.409 213.169 225.647 212.797 225.82C212.424 225.985 211.995 226.067 211.51 226.067ZM218.124 226.067C217.457 226.067 216.872 225.898 216.369 225.56C215.866 225.222 215.502 224.763 215.277 224.182L216.096 223.792C216.295 224.217 216.573 224.555 216.928 224.806C217.292 225.058 217.691 225.183 218.124 225.183C218.54 225.183 218.891 225.084 219.177 224.884C219.463 224.676 219.606 224.408 219.606 224.078C219.606 223.836 219.537 223.645 219.398 223.506C219.259 223.359 219.099 223.246 218.917 223.168C218.735 223.09 218.575 223.034 218.436 222.999L217.435 222.713C216.794 222.531 216.33 222.276 216.044 221.946C215.758 221.617 215.615 221.236 215.615 220.802C215.615 220.395 215.719 220.04 215.927 219.736C216.135 219.433 216.417 219.199 216.772 219.034C217.127 218.87 217.522 218.787 217.955 218.787C218.544 218.787 219.077 218.943 219.554 219.255C220.039 219.559 220.382 219.983 220.581 220.529L219.749 220.919C219.576 220.529 219.324 220.226 218.995 220.009C218.674 219.784 218.315 219.671 217.916 219.671C217.526 219.671 217.214 219.771 216.98 219.97C216.746 220.17 216.629 220.421 216.629 220.724C216.629 220.958 216.69 221.145 216.811 221.283C216.932 221.422 217.071 221.526 217.227 221.595C217.392 221.665 217.535 221.717 217.656 221.751L218.813 222.089C219.376 222.254 219.814 222.51 220.126 222.856C220.447 223.203 220.607 223.61 220.607 224.078C220.607 224.46 220.499 224.802 220.282 225.105C220.074 225.409 219.784 225.647 219.411 225.82C219.038 225.985 218.609 226.067 218.124 226.067ZM224.335 226.067C223.893 226.067 223.499 225.985 223.152 225.82C222.805 225.647 222.532 225.413 222.333 225.118C222.134 224.824 222.034 224.486 222.034 224.104C222.034 223.74 222.112 223.411 222.268 223.116C222.424 222.813 222.667 222.557 222.996 222.349C223.325 222.141 223.746 221.994 224.257 221.907L226.987 221.452V222.336L224.491 222.752C223.988 222.839 223.624 222.999 223.399 223.233C223.182 223.467 223.074 223.745 223.074 224.065C223.074 224.377 223.195 224.642 223.438 224.858C223.689 225.075 224.01 225.183 224.4 225.183C224.877 225.183 225.293 225.084 225.648 224.884C226.003 224.676 226.281 224.399 226.48 224.052C226.679 223.706 226.779 223.32 226.779 222.895V221.127C226.779 220.711 226.627 220.373 226.324 220.113C226.021 219.853 225.626 219.723 225.141 219.723C224.716 219.723 224.344 219.832 224.023 220.048C223.702 220.256 223.464 220.529 223.308 220.867L222.424 220.386C222.554 220.092 222.758 219.823 223.035 219.58C223.321 219.338 223.646 219.147 224.01 219.008C224.374 218.861 224.751 218.787 225.141 218.787C225.652 218.787 226.103 218.887 226.493 219.086C226.892 219.286 227.199 219.563 227.416 219.918C227.641 220.265 227.754 220.668 227.754 221.127V225.911H226.779V224.52L226.922 224.663C226.801 224.923 226.61 225.162 226.35 225.378C226.099 225.586 225.8 225.755 225.453 225.885C225.115 226.007 224.742 226.067 224.335 226.067ZM233.062 228.771C232.585 228.771 232.143 228.698 231.736 228.55C231.337 228.403 230.99 228.199 230.696 227.939C230.41 227.688 230.189 227.393 230.033 227.055L230.93 226.574C231.068 226.904 231.315 227.19 231.671 227.432C232.026 227.675 232.481 227.796 233.036 227.796C233.46 227.796 233.85 227.714 234.206 227.549C234.561 227.385 234.847 227.142 235.064 226.821C235.28 226.501 235.389 226.106 235.389 225.638V224.091L235.545 224.234C235.302 224.737 234.942 225.127 234.466 225.404C233.989 225.673 233.469 225.807 232.906 225.807C232.256 225.807 231.671 225.651 231.151 225.339C230.631 225.027 230.219 224.607 229.916 224.078C229.621 223.541 229.474 222.947 229.474 222.297C229.474 221.639 229.621 221.045 229.916 220.516C230.219 219.988 230.626 219.567 231.138 219.255C231.658 218.943 232.247 218.787 232.906 218.787C233.469 218.787 233.98 218.917 234.44 219.177C234.908 219.437 235.276 219.788 235.545 220.23L235.389 220.503V218.943H236.364V225.638C236.364 226.236 236.221 226.769 235.935 227.237C235.657 227.714 235.267 228.087 234.765 228.355C234.271 228.633 233.703 228.771 233.062 228.771ZM232.958 224.832C233.408 224.832 233.816 224.72 234.18 224.494C234.544 224.26 234.834 223.953 235.051 223.571C235.276 223.181 235.389 222.757 235.389 222.297C235.389 221.838 235.276 221.418 235.051 221.036C234.834 220.646 234.544 220.339 234.18 220.113C233.816 219.879 233.408 219.762 232.958 219.762C232.498 219.762 232.082 219.879 231.71 220.113C231.337 220.339 231.042 220.642 230.826 221.023C230.618 221.405 230.514 221.829 230.514 222.297C230.514 222.757 230.618 223.181 230.826 223.571C231.042 223.953 231.333 224.26 231.697 224.494C232.069 224.72 232.49 224.832 232.958 224.832ZM241.539 226.067C240.889 226.067 240.3 225.911 239.771 225.599C239.251 225.279 238.839 224.841 238.536 224.286C238.233 223.732 238.081 223.103 238.081 222.401C238.081 221.699 238.228 221.08 238.523 220.542C238.818 219.996 239.216 219.567 239.719 219.255C240.23 218.943 240.802 218.787 241.435 218.787C241.938 218.787 242.384 218.883 242.774 219.073C243.173 219.255 243.511 219.507 243.788 219.827C244.065 220.139 244.278 220.495 244.425 220.893C244.572 221.283 244.646 221.686 244.646 222.102C244.646 222.189 244.642 222.289 244.633 222.401C244.624 222.505 244.611 222.614 244.594 222.726H238.705V221.816H244.035L243.567 222.206C243.645 221.73 243.589 221.305 243.398 220.932C243.216 220.551 242.952 220.252 242.605 220.035C242.258 219.81 241.868 219.697 241.435 219.697C241.002 219.697 240.599 219.81 240.226 220.035C239.862 220.261 239.576 220.577 239.368 220.984C239.16 221.383 239.078 221.86 239.121 222.414C239.078 222.969 239.164 223.454 239.381 223.87C239.606 224.278 239.91 224.594 240.291 224.819C240.681 225.045 241.097 225.157 241.539 225.157C242.05 225.157 242.479 225.036 242.826 224.793C243.173 224.551 243.454 224.247 243.671 223.883L244.503 224.325C244.364 224.637 244.152 224.928 243.866 225.196C243.58 225.456 243.238 225.669 242.839 225.833C242.449 225.989 242.016 226.067 241.539 226.067ZM248.574 225.911V216.07H249.549V220.295L249.328 220.243C249.501 219.793 249.783 219.437 250.173 219.177C250.572 218.917 251.031 218.787 251.551 218.787C252.045 218.787 252.487 218.9 252.877 219.125C253.276 219.351 253.588 219.663 253.813 220.061C254.047 220.451 254.164 220.893 254.164 221.387V225.911H253.189V221.764C253.189 221.34 253.111 220.98 252.955 220.685C252.799 220.391 252.582 220.165 252.305 220.009C252.036 219.845 251.729 219.762 251.382 219.762C251.035 219.762 250.723 219.845 250.446 220.009C250.169 220.165 249.948 220.395 249.783 220.698C249.627 220.993 249.549 221.348 249.549 221.764V225.911H248.574ZM259.198 226.067C258.548 226.067 257.959 225.911 257.43 225.599C256.91 225.279 256.498 224.841 256.195 224.286C255.892 223.732 255.74 223.103 255.74 222.401C255.74 221.699 255.887 221.08 256.182 220.542C256.477 219.996 256.875 219.567 257.378 219.255C257.889 218.943 258.461 218.787 259.094 218.787C259.597 218.787 260.043 218.883 260.433 219.073C260.832 219.255 261.17 219.507 261.447 219.827C261.724 220.139 261.937 220.495 262.084 220.893C262.231 221.283 262.305 221.686 262.305 222.102C262.305 222.189 262.301 222.289 262.292 222.401C262.283 222.505 262.27 222.614 262.253 222.726H256.364V221.816H261.694L261.226 222.206C261.304 221.73 261.248 221.305 261.057 220.932C260.875 220.551 260.611 220.252 260.264 220.035C259.917 219.81 259.527 219.697 259.094 219.697C258.661 219.697 258.258 219.81 257.885 220.035C257.521 220.261 257.235 220.577 257.027 220.984C256.819 221.383 256.737 221.86 256.78 222.414C256.737 222.969 256.823 223.454 257.04 223.87C257.265 224.278 257.569 224.594 257.95 224.819C258.34 225.045 258.756 225.157 259.198 225.157C259.709 225.157 260.138 225.036 260.485 224.793C260.832 224.551 261.113 224.247 261.33 223.883L262.162 224.325C262.023 224.637 261.811 224.928 261.525 225.196C261.239 225.456 260.897 225.669 260.498 225.833C260.108 225.989 259.675 226.067 259.198 226.067ZM264.024 225.911V218.943H264.999V220.087L264.869 219.918C265.034 219.589 265.281 219.329 265.61 219.138C265.948 218.948 266.356 218.852 266.832 218.852H267.274V219.827H266.663C266.161 219.827 265.758 219.983 265.454 220.295C265.151 220.607 264.999 221.049 264.999 221.621V225.911H264.024ZM271.589 226.067C270.939 226.067 270.349 225.911 269.821 225.599C269.301 225.279 268.889 224.841 268.586 224.286C268.282 223.732 268.131 223.103 268.131 222.401C268.131 221.699 268.278 221.08 268.573 220.542C268.867 219.996 269.266 219.567 269.769 219.255C270.28 218.943 270.852 218.787 271.485 218.787C271.987 218.787 272.434 218.883 272.824 219.073C273.222 219.255 273.56 219.507 273.838 219.827C274.115 220.139 274.327 220.495 274.475 220.893C274.622 221.283 274.696 221.686 274.696 222.102C274.696 222.189 274.691 222.289 274.683 222.401C274.674 222.505 274.661 222.614 274.644 222.726H268.755V221.816H274.085L273.617 222.206C273.695 221.73 273.638 221.305 273.448 220.932C273.266 220.551 273.001 220.252 272.655 220.035C272.308 219.81 271.918 219.697 271.485 219.697C271.051 219.697 270.648 219.81 270.276 220.035C269.912 220.261 269.626 220.577 269.418 220.984C269.21 221.383 269.127 221.86 269.171 222.414C269.127 222.969 269.214 223.454 269.431 223.87C269.656 224.278 269.959 224.594 270.341 224.819C270.731 225.045 271.147 225.157 271.589 225.157C272.1 225.157 272.529 225.036 272.876 224.793C273.222 224.551 273.504 224.247 273.721 223.883L274.553 224.325C274.414 224.637 274.202 224.928 273.916 225.196C273.63 225.456 273.287 225.669 272.889 225.833C272.499 225.989 272.065 226.067 271.589 226.067Z" fill="#454545"/>
<path d="M306.238 201.911L296.238 211.911M296.238 201.911L306.238 211.911" stroke="#979FA9" stroke-width="1.5" stroke-linecap="round"/>
</g>
<g filter="url(#filter1_d_12_897)">
<rect x="29.2617" y="205.799" width="335.953" height="102.343" rx="18" fill="#161616"/>
<rect x="84.238" y="244.97" width="24" height="24" rx="6" fill="url(#paint1_linear_12_897)"/>
<path d="M92.738 257.47L94.738 259.47L99.738 254.47" stroke="#0D0D0D" stroke-width="1.5" stroke-linecap="round" stroke-linejoin="round"/>
<path d="M126.955 247.97V239.65H124.381V238.285H131.011V239.65H128.476V247.97H126.955ZM134.494 248.126C133.818 248.126 133.198 247.966 132.635 247.645C132.08 247.325 131.638 246.887 131.309 246.332C130.98 245.778 130.815 245.149 130.815 244.447C130.815 243.737 130.98 243.108 131.309 242.562C131.638 242.008 132.08 241.574 132.635 241.262C133.19 240.942 133.809 240.781 134.494 240.781C135.187 240.781 135.807 240.942 136.353 241.262C136.908 241.574 137.345 242.008 137.666 242.562C137.995 243.108 138.16 243.737 138.16 244.447C138.16 245.158 137.995 245.791 137.666 246.345C137.337 246.9 136.895 247.338 136.34 247.658C135.785 247.97 135.17 248.126 134.494 248.126ZM134.494 246.761C134.91 246.761 135.278 246.662 135.599 246.462C135.92 246.263 136.171 245.99 136.353 245.643C136.544 245.288 136.639 244.889 136.639 244.447C136.639 244.005 136.544 243.611 136.353 243.264C136.171 242.918 135.92 242.645 135.599 242.445C135.278 242.246 134.91 242.146 134.494 242.146C134.087 242.146 133.718 242.246 133.389 242.445C133.068 242.645 132.813 242.918 132.622 243.264C132.44 243.611 132.349 244.005 132.349 244.447C132.349 244.889 132.44 245.288 132.622 245.643C132.813 245.99 133.068 246.263 133.389 246.462C133.718 246.662 134.087 246.761 134.494 246.761ZM141.7 248.126C141.223 248.126 140.803 248.044 140.439 247.879C140.084 247.706 139.806 247.472 139.607 247.177C139.408 246.874 139.308 246.519 139.308 246.111C139.308 245.73 139.39 245.388 139.555 245.084C139.728 244.781 139.993 244.525 140.348 244.317C140.703 244.109 141.15 243.962 141.687 243.875L144.131 243.472V244.629L141.973 245.006C141.583 245.076 141.297 245.201 141.115 245.383C140.933 245.557 140.842 245.782 140.842 246.059C140.842 246.328 140.942 246.549 141.141 246.722C141.349 246.887 141.613 246.969 141.934 246.969C142.333 246.969 142.679 246.883 142.974 246.709C143.277 246.536 143.511 246.306 143.676 246.02C143.841 245.726 143.923 245.401 143.923 245.045V243.238C143.923 242.892 143.793 242.61 143.533 242.393C143.282 242.168 142.944 242.055 142.519 242.055C142.129 242.055 141.787 242.159 141.492 242.367C141.206 242.567 140.994 242.827 140.855 243.147L139.633 242.536C139.763 242.19 139.975 241.886 140.27 241.626C140.565 241.358 140.907 241.15 141.297 241.002C141.696 240.855 142.116 240.781 142.558 240.781C143.113 240.781 143.602 240.885 144.027 241.093C144.46 241.301 144.794 241.592 145.028 241.964C145.271 242.328 145.392 242.753 145.392 243.238V247.97H143.988V246.696L144.287 246.735C144.122 247.021 143.91 247.268 143.65 247.476C143.399 247.684 143.108 247.845 142.779 247.957C142.458 248.07 142.099 248.126 141.7 248.126ZM149.71 248.126C148.99 248.126 148.358 247.949 147.812 247.593C147.274 247.238 146.897 246.761 146.681 246.163L147.812 245.63C148.002 246.029 148.262 246.345 148.592 246.579C148.93 246.813 149.302 246.93 149.71 246.93C150.056 246.93 150.338 246.852 150.555 246.696C150.771 246.54 150.88 246.328 150.88 246.059C150.88 245.886 150.832 245.747 150.737 245.643C150.641 245.531 150.52 245.44 150.373 245.37C150.234 245.301 150.091 245.249 149.944 245.214L148.839 244.902C148.232 244.729 147.777 244.469 147.474 244.122C147.179 243.767 147.032 243.355 147.032 242.887C147.032 242.463 147.14 242.094 147.357 241.782C147.573 241.462 147.872 241.215 148.254 241.041C148.635 240.868 149.064 240.781 149.541 240.781C150.182 240.781 150.754 240.942 151.257 241.262C151.759 241.574 152.115 242.012 152.323 242.575L151.192 243.108C151.053 242.77 150.832 242.502 150.529 242.302C150.234 242.103 149.9 242.003 149.528 242.003C149.207 242.003 148.951 242.081 148.761 242.237C148.57 242.385 148.475 242.58 148.475 242.822C148.475 242.987 148.518 243.126 148.605 243.238C148.691 243.342 148.804 243.429 148.943 243.498C149.081 243.559 149.224 243.611 149.372 243.654L150.516 243.992C151.096 244.157 151.543 244.417 151.855 244.772C152.167 245.119 152.323 245.535 152.323 246.02C152.323 246.436 152.21 246.805 151.985 247.125C151.768 247.437 151.465 247.684 151.075 247.866C150.685 248.04 150.23 248.126 149.71 248.126ZM156.804 248.048C156.067 248.048 155.495 247.84 155.088 247.424C154.681 247.008 154.477 246.423 154.477 245.669V242.263H153.242V240.937H153.437C153.766 240.937 154.022 240.842 154.204 240.651C154.386 240.461 154.477 240.201 154.477 239.871V239.325H155.946V240.937H157.545V242.263H155.946V245.604C155.946 245.847 155.985 246.055 156.063 246.228C156.141 246.393 156.267 246.523 156.44 246.618C156.613 246.705 156.839 246.748 157.116 246.748C157.185 246.748 157.263 246.744 157.35 246.735C157.437 246.727 157.519 246.718 157.597 246.709V247.97C157.476 247.988 157.341 248.005 157.194 248.022C157.047 248.04 156.917 248.048 156.804 248.048ZM163.162 247.97V239.65H160.588V238.285H167.218V239.65H164.683V247.97H163.162ZM168.222 247.97V240.937H169.691V247.97H168.222ZM168.222 239.975V238.285H169.691V239.975H168.222ZM174.451 248.048C173.714 248.048 173.142 247.84 172.735 247.424C172.327 247.008 172.124 246.423 172.124 245.669V242.263H170.889V240.937H171.084C171.413 240.937 171.669 240.842 171.851 240.651C172.033 240.461 172.124 240.201 172.124 239.871V239.325H173.593V240.937H175.192V242.263H173.593V245.604C173.593 245.847 173.632 246.055 173.71 246.228C173.788 246.393 173.913 246.523 174.087 246.618C174.26 246.705 174.485 246.748 174.763 246.748C174.832 246.748 174.91 246.744 174.997 246.735C175.083 246.727 175.166 246.718 175.244 246.709V247.97C175.122 247.988 174.988 248.005 174.841 248.022C174.693 248.04 174.563 248.048 174.451 248.048ZM176.677 247.97V238.129H178.146V247.97H176.677ZM183.166 248.126C182.464 248.126 181.84 247.966 181.294 247.645C180.756 247.316 180.336 246.874 180.033 246.319C179.729 245.756 179.578 245.128 179.578 244.434C179.578 243.724 179.729 243.095 180.033 242.549C180.345 242.003 180.761 241.574 181.281 241.262C181.801 240.942 182.39 240.781 183.049 240.781C183.577 240.781 184.05 240.872 184.466 241.054C184.882 241.236 185.233 241.488 185.519 241.808C185.805 242.12 186.021 242.48 186.169 242.887C186.325 243.295 186.403 243.728 186.403 244.187C186.403 244.3 186.398 244.417 186.39 244.538C186.381 244.66 186.364 244.772 186.338 244.876H180.735V243.706H185.506L184.804 244.239C184.89 243.815 184.86 243.438 184.713 243.108C184.574 242.77 184.357 242.506 184.063 242.315C183.777 242.116 183.439 242.016 183.049 242.016C182.659 242.016 182.312 242.116 182.009 242.315C181.705 242.506 181.471 242.783 181.307 243.147C181.142 243.503 181.077 243.936 181.112 244.447C181.068 244.924 181.133 245.34 181.307 245.695C181.489 246.051 181.74 246.328 182.061 246.527C182.39 246.727 182.763 246.826 183.179 246.826C183.603 246.826 183.963 246.731 184.258 246.54C184.561 246.35 184.799 246.103 184.973 245.799L186.169 246.384C186.03 246.714 185.813 247.013 185.519 247.281C185.233 247.541 184.886 247.749 184.479 247.905C184.08 248.053 183.642 248.126 183.166 248.126Z" fill="#454545"/>
<path d="M127.163 275.97L124.381 266.285H125.434L127.839 274.956H127.618L130.088 266.285H131.193L133.65 274.956H133.416L135.834 266.285H136.887L134.105 275.97H133L130.517 267.26H130.751L128.268 275.97H127.163ZM137.515 275.97V269.002H138.49V270.146L138.36 269.977C138.525 269.648 138.772 269.388 139.101 269.197C139.439 269.007 139.847 268.911 140.323 268.911H140.765V269.886H140.154C139.652 269.886 139.249 270.042 138.945 270.354C138.642 270.666 138.49 271.108 138.49 271.68V275.97H137.515ZM141.908 275.97V269.002H142.883V275.97H141.908ZM141.908 267.715V266.285H142.883V267.715H141.908ZM147.544 276.048C146.92 276.048 146.439 275.866 146.101 275.502C145.763 275.138 145.594 274.618 145.594 273.942V269.977H144.307V269.002H144.632C144.926 269.002 145.16 268.907 145.334 268.716C145.507 268.517 145.594 268.27 145.594 267.975V267.39H146.569V269.002H148.103V269.977H146.569V273.942C146.569 274.176 146.603 274.384 146.673 274.566C146.742 274.74 146.859 274.878 147.024 274.982C147.197 275.086 147.427 275.138 147.713 275.138C147.782 275.138 147.864 275.134 147.96 275.125C148.055 275.117 148.137 275.108 148.207 275.099V275.97C148.103 275.996 147.986 276.014 147.856 276.022C147.726 276.04 147.622 276.048 147.544 276.048ZM152.837 276.126C152.187 276.126 151.597 275.97 151.069 275.658C150.549 275.338 150.137 274.9 149.834 274.345C149.53 273.791 149.379 273.162 149.379 272.46C149.379 271.758 149.526 271.139 149.821 270.601C150.115 270.055 150.514 269.626 151.017 269.314C151.528 269.002 152.1 268.846 152.733 268.846C153.235 268.846 153.682 268.942 154.072 269.132C154.47 269.314 154.808 269.566 155.086 269.886C155.363 270.198 155.575 270.554 155.723 270.952C155.87 271.342 155.944 271.745 155.944 272.161C155.944 272.248 155.939 272.348 155.931 272.46C155.922 272.564 155.909 272.673 155.892 272.785H150.003V271.875H155.333L154.865 272.265C154.943 271.789 154.886 271.364 154.696 270.991C154.514 270.61 154.249 270.311 153.903 270.094C153.556 269.869 153.166 269.756 152.733 269.756C152.299 269.756 151.896 269.869 151.524 270.094C151.16 270.32 150.874 270.636 150.666 271.043C150.458 271.442 150.375 271.919 150.419 272.473C150.375 273.028 150.462 273.513 150.679 273.929C150.904 274.337 151.207 274.653 151.589 274.878C151.979 275.104 152.395 275.216 152.837 275.216C153.348 275.216 153.777 275.095 154.124 274.852C154.47 274.61 154.752 274.306 154.969 273.942L155.801 274.384C155.662 274.696 155.45 274.987 155.164 275.255C154.878 275.515 154.535 275.728 154.137 275.892C153.747 276.048 153.313 276.126 152.837 276.126ZM160.015 278.83C159.876 278.83 159.733 278.817 159.586 278.791C159.447 278.774 159.309 278.739 159.17 278.687V277.777C159.257 277.786 159.365 277.799 159.495 277.816C159.634 277.842 159.772 277.855 159.911 277.855C160.336 277.855 160.661 277.764 160.886 277.582C161.111 277.409 161.332 277.071 161.549 276.568L161.991 275.528L161.965 276.386L159.014 269.002H160.067L162.485 275.099H162.212L164.617 269.002H165.696L162.511 276.854C162.372 277.192 162.195 277.513 161.978 277.816C161.77 278.12 161.506 278.362 161.185 278.544C160.864 278.735 160.474 278.83 160.015 278.83ZM169.978 276.126C169.319 276.126 168.721 275.97 168.184 275.658C167.646 275.338 167.217 274.904 166.897 274.358C166.585 273.804 166.429 273.175 166.429 272.473C166.429 271.78 166.585 271.16 166.897 270.614C167.209 270.068 167.629 269.639 168.158 269.327C168.695 269.007 169.302 268.846 169.978 268.846C170.654 268.846 171.256 269.002 171.785 269.314C172.322 269.626 172.742 270.055 173.046 270.601C173.358 271.147 173.514 271.771 173.514 272.473C173.514 273.184 173.353 273.817 173.033 274.371C172.712 274.917 172.283 275.346 171.746 275.658C171.217 275.97 170.628 276.126 169.978 276.126ZM169.978 275.151C170.446 275.151 170.866 275.034 171.239 274.8C171.62 274.566 171.919 274.246 172.136 273.838C172.361 273.431 172.474 272.976 172.474 272.473C172.474 271.971 172.361 271.52 172.136 271.121C171.919 270.723 171.62 270.406 171.239 270.172C170.866 269.938 170.446 269.821 169.978 269.821C169.51 269.821 169.085 269.938 168.704 270.172C168.331 270.406 168.032 270.723 167.807 271.121C167.581 271.52 167.469 271.971 167.469 272.473C167.469 272.976 167.581 273.431 167.807 273.838C168.032 274.246 168.331 274.566 168.704 274.8C169.085 275.034 169.51 275.151 169.978 275.151ZM177.703 276.126C177.218 276.126 176.776 276.014 176.377 275.788C175.979 275.554 175.662 275.234 175.428 274.826C175.203 274.41 175.09 273.934 175.09 273.396V269.002H176.065V273.279C176.065 273.652 176.139 273.981 176.286 274.267C176.442 274.545 176.655 274.761 176.923 274.917C177.201 275.073 177.517 275.151 177.872 275.151C178.228 275.151 178.544 275.073 178.821 274.917C179.099 274.753 179.315 274.523 179.471 274.228C179.627 273.925 179.705 273.565 179.705 273.149V269.002H180.68V275.97H179.705V274.618L179.926 274.67C179.762 275.121 179.48 275.476 179.081 275.736C178.683 275.996 178.223 276.126 177.703 276.126ZM182.685 275.97V269.002H183.66V270.146L183.53 269.977C183.695 269.648 183.942 269.388 184.271 269.197C184.609 269.007 185.017 268.911 185.493 268.911H185.935V269.886H185.324C184.822 269.886 184.419 270.042 184.115 270.354C183.812 270.666 183.66 271.108 183.66 271.68V275.97H182.685ZM189.287 275.97V269.002H190.262V270.328L190.106 270.133C190.297 269.726 190.578 269.41 190.951 269.184C191.332 268.959 191.748 268.846 192.199 268.846C192.736 268.846 193.222 268.998 193.655 269.301C194.088 269.605 194.396 269.999 194.578 270.484L194.305 270.497C194.478 269.96 194.777 269.553 195.202 269.275C195.635 268.989 196.112 268.846 196.632 268.846C197.1 268.846 197.529 268.959 197.919 269.184C198.318 269.41 198.634 269.722 198.868 270.12C199.111 270.51 199.232 270.952 199.232 271.446V275.97H198.257V271.823C198.257 271.399 198.179 271.039 198.023 270.744C197.876 270.45 197.672 270.224 197.412 270.068C197.152 269.904 196.853 269.821 196.515 269.821C196.186 269.821 195.887 269.904 195.618 270.068C195.349 270.224 195.137 270.454 194.981 270.757C194.825 271.052 194.747 271.407 194.747 271.823V275.97H193.772V271.823C193.772 271.399 193.694 271.039 193.538 270.744C193.391 270.45 193.187 270.224 192.927 270.068C192.667 269.904 192.368 269.821 192.03 269.821C191.692 269.821 191.389 269.904 191.12 270.068C190.86 270.224 190.652 270.454 190.496 270.757C190.34 271.052 190.262 271.407 190.262 271.823V275.97H189.287ZM204.266 276.126C203.616 276.126 203.026 275.97 202.498 275.658C201.978 275.338 201.566 274.9 201.263 274.345C200.959 273.791 200.808 273.162 200.808 272.46C200.808 271.758 200.955 271.139 201.25 270.601C201.544 270.055 201.943 269.626 202.446 269.314C202.957 269.002 203.529 268.846 204.162 268.846C204.664 268.846 205.111 268.942 205.501 269.132C205.899 269.314 206.237 269.566 206.515 269.886C206.792 270.198 207.004 270.554 207.152 270.952C207.299 271.342 207.373 271.745 207.373 272.161C207.373 272.248 207.368 272.348 207.36 272.46C207.351 272.564 207.338 272.673 207.321 272.785H201.432V271.875H206.762L206.294 272.265C206.372 271.789 206.315 271.364 206.125 270.991C205.943 270.61 205.678 270.311 205.332 270.094C204.985 269.869 204.595 269.756 204.162 269.756C203.728 269.756 203.325 269.869 202.953 270.094C202.589 270.32 202.303 270.636 202.095 271.043C201.887 271.442 201.804 271.919 201.848 272.473C201.804 273.028 201.891 273.513 202.108 273.929C202.333 274.337 202.636 274.653 203.018 274.878C203.408 275.104 203.824 275.216 204.266 275.216C204.777 275.216 205.206 275.095 205.553 274.852C205.899 274.61 206.181 274.306 206.398 273.942L207.23 274.384C207.091 274.696 206.879 274.987 206.593 275.255C206.307 275.515 205.964 275.728 205.566 275.892C205.176 276.048 204.742 276.126 204.266 276.126ZM211.51 276.126C210.842 276.126 210.257 275.957 209.755 275.619C209.252 275.281 208.888 274.822 208.663 274.241L209.482 273.851C209.681 274.276 209.958 274.614 210.314 274.865C210.678 275.117 211.076 275.242 211.51 275.242C211.926 275.242 212.277 275.143 212.563 274.943C212.849 274.735 212.992 274.467 212.992 274.137C212.992 273.895 212.922 273.704 212.784 273.565C212.645 273.418 212.485 273.305 212.303 273.227C212.121 273.149 211.96 273.093 211.822 273.058L210.821 272.772C210.179 272.59 209.716 272.335 209.43 272.005C209.144 271.676 209.001 271.295 209.001 270.861C209.001 270.454 209.105 270.099 209.313 269.795C209.521 269.492 209.802 269.258 210.158 269.093C210.513 268.929 210.907 268.846 211.341 268.846C211.93 268.846 212.463 269.002 212.94 269.314C213.425 269.618 213.767 270.042 213.967 270.588L213.135 270.978C212.961 270.588 212.71 270.285 212.381 270.068C212.06 269.843 211.7 269.73 211.302 269.73C210.912 269.73 210.6 269.83 210.366 270.029C210.132 270.229 210.015 270.48 210.015 270.783C210.015 271.017 210.075 271.204 210.197 271.342C210.318 271.481 210.457 271.585 210.613 271.654C210.777 271.724 210.92 271.776 211.042 271.81L212.199 272.148C212.762 272.313 213.2 272.569 213.512 272.915C213.832 273.262 213.993 273.669 213.993 274.137C213.993 274.519 213.884 274.861 213.668 275.164C213.46 275.468 213.169 275.706 212.797 275.879C212.424 276.044 211.995 276.126 211.51 276.126ZM218.124 276.126C217.457 276.126 216.872 275.957 216.369 275.619C215.866 275.281 215.502 274.822 215.277 274.241L216.096 273.851C216.295 274.276 216.573 274.614 216.928 274.865C217.292 275.117 217.691 275.242 218.124 275.242C218.54 275.242 218.891 275.143 219.177 274.943C219.463 274.735 219.606 274.467 219.606 274.137C219.606 273.895 219.537 273.704 219.398 273.565C219.259 273.418 219.099 273.305 218.917 273.227C218.735 273.149 218.575 273.093 218.436 273.058L217.435 272.772C216.794 272.59 216.33 272.335 216.044 272.005C215.758 271.676 215.615 271.295 215.615 270.861C215.615 270.454 215.719 270.099 215.927 269.795C216.135 269.492 216.417 269.258 216.772 269.093C217.127 268.929 217.522 268.846 217.955 268.846C218.544 268.846 219.077 269.002 219.554 269.314C220.039 269.618 220.382 270.042 220.581 270.588L219.749 270.978C219.576 270.588 219.324 270.285 218.995 270.068C218.674 269.843 218.315 269.73 217.916 269.73C217.526 269.73 217.214 269.83 216.98 270.029C216.746 270.229 216.629 270.48 216.629 270.783C216.629 271.017 216.69 271.204 216.811 271.342C216.932 271.481 217.071 271.585 217.227 271.654C217.392 271.724 217.535 271.776 217.656 271.81L218.813 272.148C219.376 272.313 219.814 272.569 220.126 272.915C220.447 273.262 220.607 273.669 220.607 274.137C220.607 274.519 220.499 274.861 220.282 275.164C220.074 275.468 219.784 275.706 219.411 275.879C219.038 276.044 218.609 276.126 218.124 276.126ZM224.335 276.126C223.893 276.126 223.499 276.044 223.152 275.879C222.805 275.706 222.532 275.472 222.333 275.177C222.134 274.883 222.034 274.545 222.034 274.163C222.034 273.799 222.112 273.47 222.268 273.175C222.424 272.872 222.667 272.616 222.996 272.408C223.325 272.2 223.746 272.053 224.257 271.966L226.987 271.511V272.395L224.491 272.811C223.988 272.898 223.624 273.058 223.399 273.292C223.182 273.526 223.074 273.804 223.074 274.124C223.074 274.436 223.195 274.701 223.438 274.917C223.689 275.134 224.01 275.242 224.4 275.242C224.877 275.242 225.293 275.143 225.648 274.943C226.003 274.735 226.281 274.458 226.48 274.111C226.679 273.765 226.779 273.379 226.779 272.954V271.186C226.779 270.77 226.627 270.432 226.324 270.172C226.021 269.912 225.626 269.782 225.141 269.782C224.716 269.782 224.344 269.891 224.023 270.107C223.702 270.315 223.464 270.588 223.308 270.926L222.424 270.445C222.554 270.151 222.758 269.882 223.035 269.639C223.321 269.397 223.646 269.206 224.01 269.067C224.374 268.92 224.751 268.846 225.141 268.846C225.652 268.846 226.103 268.946 226.493 269.145C226.892 269.345 227.199 269.622 227.416 269.977C227.641 270.324 227.754 270.727 227.754 271.186V275.97H226.779V274.579L226.922 274.722C226.801 274.982 226.61 275.221 226.35 275.437C226.099 275.645 225.8 275.814 225.453 275.944C225.115 276.066 224.742 276.126 224.335 276.126ZM233.062 278.83C232.585 278.83 232.143 278.757 231.736 278.609C231.337 278.462 230.99 278.258 230.696 277.998C230.41 277.747 230.189 277.452 230.033 277.114L230.93 276.633C231.068 276.963 231.315 277.249 231.671 277.491C232.026 277.734 232.481 277.855 233.036 277.855C233.46 277.855 233.85 277.773 234.206 277.608C234.561 277.444 234.847 277.201 235.064 276.88C235.28 276.56 235.389 276.165 235.389 275.697V274.15L235.545 274.293C235.302 274.796 234.942 275.186 234.466 275.463C233.989 275.732 233.469 275.866 232.906 275.866C232.256 275.866 231.671 275.71 231.151 275.398C230.631 275.086 230.219 274.666 229.916 274.137C229.621 273.6 229.474 273.006 229.474 272.356C229.474 271.698 229.621 271.104 229.916 270.575C230.219 270.047 230.626 269.626 231.138 269.314C231.658 269.002 232.247 268.846 232.906 268.846C233.469 268.846 233.98 268.976 234.44 269.236C234.908 269.496 235.276 269.847 235.545 270.289L235.389 270.562V269.002H236.364V275.697C236.364 276.295 236.221 276.828 235.935 277.296C235.657 277.773 235.267 278.146 234.765 278.414C234.271 278.692 233.703 278.83 233.062 278.83ZM232.958 274.891C233.408 274.891 233.816 274.779 234.18 274.553C234.544 274.319 234.834 274.012 235.051 273.63C235.276 273.24 235.389 272.816 235.389 272.356C235.389 271.897 235.276 271.477 235.051 271.095C234.834 270.705 234.544 270.398 234.18 270.172C233.816 269.938 233.408 269.821 232.958 269.821C232.498 269.821 232.082 269.938 231.71 270.172C231.337 270.398 231.042 270.701 230.826 271.082C230.618 271.464 230.514 271.888 230.514 272.356C230.514 272.816 230.618 273.24 230.826 273.63C231.042 274.012 231.333 274.319 231.697 274.553C232.069 274.779 232.49 274.891 232.958 274.891ZM241.539 276.126C240.889 276.126 240.3 275.97 239.771 275.658C239.251 275.338 238.839 274.9 238.536 274.345C238.233 273.791 238.081 273.162 238.081 272.46C238.081 271.758 238.228 271.139 238.523 270.601C238.818 270.055 239.216 269.626 239.719 269.314C240.23 269.002 240.802 268.846 241.435 268.846C241.938 268.846 242.384 268.942 242.774 269.132C243.173 269.314 243.511 269.566 243.788 269.886C244.065 270.198 244.278 270.554 244.425 270.952C244.572 271.342 244.646 271.745 244.646 272.161C244.646 272.248 244.642 272.348 244.633 272.46C244.624 272.564 244.611 272.673 244.594 272.785H238.705V271.875H244.035L243.567 272.265C243.645 271.789 243.589 271.364 243.398 270.991C243.216 270.61 242.952 270.311 242.605 270.094C242.258 269.869 241.868 269.756 241.435 269.756C241.002 269.756 240.599 269.869 240.226 270.094C239.862 270.32 239.576 270.636 239.368 271.043C239.16 271.442 239.078 271.919 239.121 272.473C239.078 273.028 239.164 273.513 239.381 273.929C239.606 274.337 239.91 274.653 240.291 274.878C240.681 275.104 241.097 275.216 241.539 275.216C242.05 275.216 242.479 275.095 242.826 274.852C243.173 274.61 243.454 274.306 243.671 273.942L244.503 274.384C244.364 274.696 244.152 274.987 243.866 275.255C243.58 275.515 243.238 275.728 242.839 275.892C242.449 276.048 242.016 276.126 241.539 276.126ZM248.574 275.97V266.129H249.549V270.354L249.328 270.302C249.501 269.852 249.783 269.496 250.173 269.236C250.572 268.976 251.031 268.846 251.551 268.846C252.045 268.846 252.487 268.959 252.877 269.184C253.276 269.41 253.588 269.722 253.813 270.12C254.047 270.51 254.164 270.952 254.164 271.446V275.97H253.189V271.823C253.189 271.399 253.111 271.039 252.955 270.744C252.799 270.45 252.582 270.224 252.305 270.068C252.036 269.904 251.729 269.821 251.382 269.821C251.035 269.821 250.723 269.904 250.446 270.068C250.169 270.224 249.948 270.454 249.783 270.757C249.627 271.052 249.549 271.407 249.549 271.823V275.97H248.574ZM259.198 276.126C258.548 276.126 257.959 275.97 257.43 275.658C256.91 275.338 256.498 274.9 256.195 274.345C255.892 273.791 255.74 273.162 255.74 272.46C255.74 271.758 255.887 271.139 256.182 270.601C256.477 270.055 256.875 269.626 257.378 269.314C257.889 269.002 258.461 268.846 259.094 268.846C259.597 268.846 260.043 268.942 260.433 269.132C260.832 269.314 261.17 269.566 261.447 269.886C261.724 270.198 261.937 270.554 262.084 270.952C262.231 271.342 262.305 271.745 262.305 272.161C262.305 272.248 262.301 272.348 262.292 272.46C262.283 272.564 262.27 272.673 262.253 272.785H256.364V271.875H261.694L261.226 272.265C261.304 271.789 261.248 271.364 261.057 270.991C260.875 270.61 260.611 270.311 260.264 270.094C259.917 269.869 259.527 269.756 259.094 269.756C258.661 269.756 258.258 269.869 257.885 270.094C257.521 270.32 257.235 270.636 257.027 271.043C256.819 271.442 256.737 271.919 256.78 272.473C256.737 273.028 256.823 273.513 257.04 273.929C257.265 274.337 257.569 274.653 257.95 274.878C258.34 275.104 258.756 275.216 259.198 275.216C259.709 275.216 260.138 275.095 260.485 274.852C260.832 274.61 261.113 274.306 261.33 273.942L262.162 274.384C262.023 274.696 261.811 274.987 261.525 275.255C261.239 275.515 260.897 275.728 260.498 275.892C260.108 276.048 259.675 276.126 259.198 276.126ZM264.024 275.97V269.002H264.999V270.146L264.869 269.977C265.034 269.648 265.281 269.388 265.61 269.197C265.948 269.007 266.356 268.911 266.832 268.911H267.274V269.886H266.663C266.161 269.886 265.758 270.042 265.454 270.354C265.151 270.666 264.999 271.108 264.999 271.68V275.97H264.024ZM271.589 276.126C270.939 276.126 270.349 275.97 269.821 275.658C269.301 275.338 268.889 274.9 268.586 274.345C268.282 273.791 268.131 273.162 268.131 272.46C268.131 271.758 268.278 271.139 268.573 270.601C268.867 270.055 269.266 269.626 269.769 269.314C270.28 269.002 270.852 268.846 271.485 268.846C271.987 268.846 272.434 268.942 272.824 269.132C273.222 269.314 273.56 269.566 273.838 269.886C274.115 270.198 274.327 270.554 274.475 270.952C274.622 271.342 274.696 271.745 274.696 272.161C274.696 272.248 274.691 272.348 274.683 272.46C274.674 272.564 274.661 272.673 274.644 272.785H268.755V271.875H274.085L273.617 272.265C273.695 271.789 273.638 271.364 273.448 270.991C273.266 270.61 273.001 270.311 272.655 270.094C272.308 269.869 271.918 269.756 271.485 269.756C271.051 269.756 270.648 269.869 270.276 270.094C269.912 270.32 269.626 270.636 269.418 271.043C269.21 271.442 269.127 271.919 269.171 272.473C269.127 273.028 269.214 273.513 269.431 273.929C269.656 274.337 269.959 274.653 270.341 274.878C270.731 275.104 271.147 275.216 271.589 275.216C272.1 275.216 272.529 275.095 272.876 274.852C273.222 274.61 273.504 274.306 273.721 273.942L274.553 274.384C274.414 274.696 274.202 274.987 273.916 275.255C273.63 275.515 273.287 275.728 272.889 275.892C272.499 276.048 272.065 276.126 271.589 276.126Z" fill="#454545"/>
<path d="M306.238 251.97L296.238 261.97M296.238 251.97L306.238 261.97" stroke="#979FA9" stroke-width="1.5" stroke-linecap="round"/>
</g>
<g filter="url(#filter2_d_12_897)">
<rect x="14.8" y="259.195" width="364.876" height="102.343" rx="18" fill="#161616"/>
<rect x="84.2378" y="298.367" width="24" height="24" rx="6" fill="url(#paint2_linear_12_897)"/>
<path d="M92.7378 310.867L94.7378 312.867L99.7378 307.867" stroke="#0D0D0D" stroke-width="1.5" stroke-linecap="round" stroke-linejoin="round"/>
<path d="M126.955 301.367V293.047H124.381V291.682H131.011V293.047H128.476V301.367H126.955ZM134.494 301.523C133.818 301.523 133.198 301.363 132.635 301.042C132.08 300.721 131.638 300.284 131.309 299.729C130.979 299.174 130.815 298.546 130.815 297.844C130.815 297.133 130.979 296.505 131.309 295.959C131.638 295.404 132.08 294.971 132.635 294.659C133.189 294.338 133.809 294.178 134.494 294.178C135.187 294.178 135.807 294.338 136.353 294.659C136.907 294.971 137.345 295.404 137.666 295.959C137.995 296.505 138.16 297.133 138.16 297.844C138.16 298.555 137.995 299.187 137.666 299.742C137.336 300.297 136.894 300.734 136.34 301.055C135.785 301.367 135.17 301.523 134.494 301.523ZM134.494 300.158C134.91 300.158 135.278 300.058 135.599 299.859C135.919 299.66 136.171 299.387 136.353 299.04C136.543 298.685 136.639 298.286 136.639 297.844C136.639 297.402 136.543 297.008 136.353 296.661C136.171 296.314 135.919 296.041 135.599 295.842C135.278 295.643 134.91 295.543 134.494 295.543C134.086 295.543 133.718 295.643 133.389 295.842C133.068 296.041 132.812 296.314 132.622 296.661C132.44 297.008 132.349 297.402 132.349 297.844C132.349 298.286 132.44 298.685 132.622 299.04C132.812 299.387 133.068 299.66 133.389 299.859C133.718 300.058 134.086 300.158 134.494 300.158ZM141.7 301.523C141.223 301.523 140.803 301.441 140.439 301.276C140.084 301.103 139.806 300.869 139.607 300.574C139.408 300.271 139.308 299.915 139.308 299.508C139.308 299.127 139.39 298.784 139.555 298.481C139.728 298.178 139.993 297.922 140.348 297.714C140.703 297.506 141.15 297.359 141.687 297.272L144.131 296.869V298.026L141.973 298.403C141.583 298.472 141.297 298.598 141.115 298.78C140.933 298.953 140.842 299.179 140.842 299.456C140.842 299.725 140.942 299.946 141.141 300.119C141.349 300.284 141.613 300.366 141.934 300.366C142.333 300.366 142.679 300.279 142.974 300.106C143.277 299.933 143.511 299.703 143.676 299.417C143.841 299.122 143.923 298.797 143.923 298.442V296.635C143.923 296.288 143.793 296.007 143.533 295.79C143.282 295.565 142.944 295.452 142.519 295.452C142.129 295.452 141.787 295.556 141.492 295.764C141.206 295.963 140.994 296.223 140.855 296.544L139.633 295.933C139.763 295.586 139.975 295.283 140.27 295.023C140.565 294.754 140.907 294.546 141.297 294.399C141.696 294.252 142.116 294.178 142.558 294.178C143.113 294.178 143.602 294.282 144.027 294.49C144.46 294.698 144.794 294.988 145.028 295.361C145.271 295.725 145.392 296.15 145.392 296.635V301.367H143.988V300.093L144.287 300.132C144.122 300.418 143.91 300.665 143.65 300.873C143.399 301.081 143.108 301.241 142.779 301.354C142.458 301.467 142.099 301.523 141.7 301.523ZM149.709 301.523C148.99 301.523 148.357 301.345 147.811 300.99C147.274 300.635 146.897 300.158 146.68 299.56L147.811 299.027C148.002 299.426 148.262 299.742 148.591 299.976C148.929 300.21 149.302 300.327 149.709 300.327C150.056 300.327 150.338 300.249 150.554 300.093C150.771 299.937 150.879 299.725 150.879 299.456C150.879 299.283 150.832 299.144 150.736 299.04C150.641 298.927 150.52 298.836 150.372 298.767C150.234 298.698 150.091 298.646 149.943 298.611L148.838 298.299C148.232 298.126 147.777 297.866 147.473 297.519C147.179 297.164 147.031 296.752 147.031 296.284C147.031 295.859 147.14 295.491 147.356 295.179C147.573 294.858 147.872 294.611 148.253 294.438C148.635 294.265 149.064 294.178 149.54 294.178C150.182 294.178 150.754 294.338 151.256 294.659C151.759 294.971 152.114 295.409 152.322 295.972L151.191 296.505C151.053 296.167 150.832 295.898 150.528 295.699C150.234 295.5 149.9 295.4 149.527 295.4C149.207 295.4 148.951 295.478 148.76 295.634C148.57 295.781 148.474 295.976 148.474 296.219C148.474 296.384 148.518 296.522 148.604 296.635C148.691 296.739 148.804 296.826 148.942 296.895C149.081 296.956 149.224 297.008 149.371 297.051L150.515 297.389C151.096 297.554 151.542 297.814 151.854 298.169C152.166 298.516 152.322 298.932 152.322 299.417C152.322 299.833 152.21 300.201 151.984 300.522C151.768 300.834 151.464 301.081 151.074 301.263C150.684 301.436 150.229 301.523 149.709 301.523ZM156.804 301.445C156.067 301.445 155.495 301.237 155.088 300.821C154.68 300.405 154.477 299.82 154.477 299.066V295.66H153.242V294.334H153.437C153.766 294.334 154.022 294.239 154.204 294.048C154.386 293.857 154.477 293.597 154.477 293.268V292.722H155.946V294.334H157.545V295.66H155.946V299.001C155.946 299.244 155.985 299.452 156.063 299.625C156.141 299.79 156.266 299.92 156.44 300.015C156.613 300.102 156.838 300.145 157.116 300.145C157.185 300.145 157.263 300.141 157.35 300.132C157.436 300.123 157.519 300.115 157.597 300.106V301.367C157.475 301.384 157.341 301.402 157.194 301.419C157.046 301.436 156.916 301.445 156.804 301.445ZM163.162 301.367V293.047H160.588V291.682H167.218V293.047H164.683V301.367H163.162ZM168.222 301.367V294.334H169.691V301.367H168.222ZM168.222 293.372V291.682H169.691V293.372H168.222ZM174.45 301.445C173.714 301.445 173.142 301.237 172.734 300.821C172.327 300.405 172.123 299.82 172.123 299.066V295.66H170.888V294.334H171.083C171.413 294.334 171.668 294.239 171.85 294.048C172.032 293.857 172.123 293.597 172.123 293.268V292.722H173.592V294.334H175.191V295.66H173.592V299.001C173.592 299.244 173.631 299.452 173.709 299.625C173.787 299.79 173.913 299.92 174.086 300.015C174.26 300.102 174.485 300.145 174.762 300.145C174.832 300.145 174.91 300.141 174.996 300.132C175.083 300.123 175.165 300.115 175.243 300.106V301.367C175.122 301.384 174.988 301.402 174.84 301.419C174.693 301.436 174.563 301.445 174.45 301.445ZM176.677 301.367V291.526H178.146V301.367H176.677ZM183.165 301.523C182.463 301.523 181.839 301.363 181.293 301.042C180.756 300.713 180.336 300.271 180.032 299.716C179.729 299.153 179.577 298.524 179.577 297.831C179.577 297.12 179.729 296.492 180.032 295.946C180.344 295.4 180.76 294.971 181.28 294.659C181.8 294.338 182.39 294.178 183.048 294.178C183.577 294.178 184.049 294.269 184.465 294.451C184.881 294.633 185.232 294.884 185.518 295.205C185.804 295.517 186.021 295.877 186.168 296.284C186.324 296.691 186.402 297.125 186.402 297.584C186.402 297.697 186.398 297.814 186.389 297.935C186.381 298.056 186.363 298.169 186.337 298.273H180.734V297.103H185.505L184.803 297.636C184.89 297.211 184.86 296.834 184.712 296.505C184.574 296.167 184.357 295.903 184.062 295.712C183.776 295.513 183.438 295.413 183.048 295.413C182.658 295.413 182.312 295.513 182.008 295.712C181.705 295.903 181.471 296.18 181.306 296.544C181.142 296.899 181.077 297.333 181.111 297.844C181.068 298.321 181.133 298.737 181.306 299.092C181.488 299.447 181.74 299.725 182.06 299.924C182.39 300.123 182.762 300.223 183.178 300.223C183.603 300.223 183.963 300.128 184.257 299.937C184.561 299.746 184.799 299.499 184.972 299.196L186.168 299.781C186.03 300.11 185.813 300.409 185.518 300.678C185.232 300.938 184.886 301.146 184.478 301.302C184.08 301.449 183.642 301.523 183.165 301.523Z" fill="#454545"/>
<path d="M127.163 329.367L124.381 319.682H125.434L127.839 328.353H127.618L130.088 319.682H131.193L133.65 328.353H133.416L135.834 319.682H136.887L134.105 329.367H133L130.517 320.657H130.751L128.268 329.367H127.163ZM137.515 329.367V322.399H138.49V323.543L138.36 323.374C138.525 323.045 138.772 322.785 139.101 322.594C139.439 322.403 139.846 322.308 140.323 322.308H140.765V323.283H140.154C139.651 323.283 139.248 323.439 138.945 323.751C138.642 324.063 138.49 324.505 138.49 325.077V329.367H137.515ZM141.908 329.367V322.399H142.883V329.367H141.908ZM141.908 321.112V319.682H142.883V321.112H141.908ZM147.543 329.445C146.919 329.445 146.438 329.263 146.1 328.899C145.762 328.535 145.593 328.015 145.593 327.339V323.374H144.306V322.399H144.631C144.926 322.399 145.16 322.304 145.333 322.113C145.507 321.914 145.593 321.667 145.593 321.372V320.787H146.568V322.399H148.102V323.374H146.568V327.339C146.568 327.573 146.603 327.781 146.672 327.963C146.742 328.136 146.859 328.275 147.023 328.379C147.197 328.483 147.426 328.535 147.712 328.535C147.782 328.535 147.864 328.531 147.959 328.522C148.055 328.513 148.137 328.505 148.206 328.496V329.367C148.102 329.393 147.985 329.41 147.855 329.419C147.725 329.436 147.621 329.445 147.543 329.445ZM152.837 329.523C152.187 329.523 151.597 329.367 151.069 329.055C150.549 328.734 150.137 328.297 149.834 327.742C149.53 327.187 149.379 326.559 149.379 325.857C149.379 325.155 149.526 324.535 149.821 323.998C150.115 323.452 150.514 323.023 151.017 322.711C151.528 322.399 152.1 322.243 152.733 322.243C153.235 322.243 153.682 322.338 154.072 322.529C154.47 322.711 154.808 322.962 155.086 323.283C155.363 323.595 155.575 323.95 155.723 324.349C155.87 324.739 155.944 325.142 155.944 325.558C155.944 325.645 155.939 325.744 155.931 325.857C155.922 325.961 155.909 326.069 155.892 326.182H150.003V325.272H155.333L154.865 325.662C154.943 325.185 154.886 324.761 154.696 324.388C154.514 324.007 154.249 323.708 153.903 323.491C153.556 323.266 153.166 323.153 152.733 323.153C152.299 323.153 151.896 323.266 151.524 323.491C151.16 323.716 150.874 324.033 150.666 324.44C150.458 324.839 150.375 325.315 150.419 325.87C150.375 326.425 150.462 326.91 150.679 327.326C150.904 327.733 151.207 328.05 151.589 328.275C151.979 328.5 152.395 328.613 152.837 328.613C153.348 328.613 153.777 328.492 154.124 328.249C154.47 328.006 154.752 327.703 154.969 327.339L155.801 327.781C155.662 328.093 155.45 328.383 155.164 328.652C154.878 328.912 154.535 329.124 154.137 329.289C153.747 329.445 153.313 329.523 152.837 329.523ZM160.015 332.227C159.876 332.227 159.733 332.214 159.586 332.188C159.447 332.171 159.308 332.136 159.17 332.084V331.174C159.256 331.183 159.365 331.196 159.495 331.213C159.633 331.239 159.772 331.252 159.911 331.252C160.335 331.252 160.66 331.161 160.886 330.979C161.111 330.806 161.332 330.468 161.549 329.965L161.991 328.925L161.965 329.783L159.014 322.399H160.067L162.485 328.496H162.212L164.617 322.399H165.696L162.511 330.251C162.372 330.589 162.194 330.91 161.978 331.213C161.77 331.516 161.505 331.759 161.185 331.941C160.864 332.132 160.474 332.227 160.015 332.227ZM169.977 329.523C169.319 329.523 168.721 329.367 168.183 329.055C167.646 328.734 167.217 328.301 166.896 327.755C166.584 327.2 166.428 326.572 166.428 325.87C166.428 325.177 166.584 324.557 166.896 324.011C167.208 323.465 167.629 323.036 168.157 322.724C168.695 322.403 169.301 322.243 169.977 322.243C170.653 322.243 171.256 322.399 171.784 322.711C172.322 323.023 172.742 323.452 173.045 323.998C173.357 324.544 173.513 325.168 173.513 325.87C173.513 326.581 173.353 327.213 173.032 327.768C172.712 328.314 172.283 328.743 171.745 329.055C171.217 329.367 170.627 329.523 169.977 329.523ZM169.977 328.548C170.445 328.548 170.866 328.431 171.238 328.197C171.62 327.963 171.919 327.642 172.135 327.235C172.361 326.828 172.473 326.373 172.473 325.87C172.473 325.367 172.361 324.917 172.135 324.518C171.919 324.119 171.62 323.803 171.238 323.569C170.866 323.335 170.445 323.218 169.977 323.218C169.509 323.218 169.085 323.335 168.703 323.569C168.331 323.803 168.032 324.119 167.806 324.518C167.581 324.917 167.468 325.367 167.468 325.87C167.468 326.373 167.581 326.828 167.806 327.235C168.032 327.642 168.331 327.963 168.703 328.197C169.085 328.431 169.509 328.548 169.977 328.548ZM177.703 329.523C177.218 329.523 176.776 329.41 176.377 329.185C175.978 328.951 175.662 328.63 175.428 328.223C175.203 327.807 175.09 327.33 175.09 326.793V322.399H176.065V326.676C176.065 327.049 176.139 327.378 176.286 327.664C176.442 327.941 176.654 328.158 176.923 328.314C177.2 328.47 177.517 328.548 177.872 328.548C178.227 328.548 178.544 328.47 178.821 328.314C179.098 328.149 179.315 327.92 179.471 327.625C179.627 327.322 179.705 326.962 179.705 326.546V322.399H180.68V329.367H179.705V328.015L179.926 328.067C179.761 328.518 179.48 328.873 179.081 329.133C178.682 329.393 178.223 329.523 177.703 329.523ZM182.685 329.367V322.399H183.66V323.543L183.53 323.374C183.695 323.045 183.942 322.785 184.271 322.594C184.609 322.403 185.016 322.308 185.493 322.308H185.935V323.283H185.324C184.821 323.283 184.418 323.439 184.115 323.751C183.812 324.063 183.66 324.505 183.66 325.077V329.367H182.685ZM189.287 329.367V322.399H190.262V323.725L190.106 323.53C190.296 323.123 190.578 322.806 190.951 322.581C191.332 322.356 191.748 322.243 192.199 322.243C192.736 322.243 193.221 322.395 193.655 322.698C194.088 323.001 194.396 323.396 194.578 323.881L194.305 323.894C194.478 323.357 194.777 322.949 195.202 322.672C195.635 322.386 196.112 322.243 196.632 322.243C197.1 322.243 197.529 322.356 197.919 322.581C198.317 322.806 198.634 323.118 198.868 323.517C199.11 323.907 199.232 324.349 199.232 324.843V329.367H198.257V325.22C198.257 324.795 198.179 324.436 198.023 324.141C197.875 323.846 197.672 323.621 197.412 323.465C197.152 323.3 196.853 323.218 196.515 323.218C196.185 323.218 195.886 323.3 195.618 323.465C195.349 323.621 195.137 323.851 194.981 324.154C194.825 324.449 194.747 324.804 194.747 325.22V329.367H193.772V325.22C193.772 324.795 193.694 324.436 193.538 324.141C193.39 323.846 193.187 323.621 192.927 323.465C192.667 323.3 192.368 323.218 192.03 323.218C191.692 323.218 191.388 323.3 191.12 323.465C190.86 323.621 190.652 323.851 190.496 324.154C190.34 324.449 190.262 324.804 190.262 325.22V329.367H189.287ZM204.265 329.523C203.615 329.523 203.026 329.367 202.497 329.055C201.977 328.734 201.566 328.297 201.262 327.742C200.959 327.187 200.807 326.559 200.807 325.857C200.807 325.155 200.955 324.535 201.249 323.998C201.544 323.452 201.943 323.023 202.445 322.711C202.957 322.399 203.529 322.243 204.161 322.243C204.664 322.243 205.11 322.338 205.5 322.529C205.899 322.711 206.237 322.962 206.514 323.283C206.792 323.595 207.004 323.95 207.151 324.349C207.299 324.739 207.372 325.142 207.372 325.558C207.372 325.645 207.368 325.744 207.359 325.857C207.351 325.961 207.338 326.069 207.32 326.182H201.431V325.272H206.761L206.293 325.662C206.371 325.185 206.315 324.761 206.124 324.388C205.942 324.007 205.678 323.708 205.331 323.491C204.985 323.266 204.595 323.153 204.161 323.153C203.728 323.153 203.325 323.266 202.952 323.491C202.588 323.716 202.302 324.033 202.094 324.44C201.886 324.839 201.804 325.315 201.847 325.87C201.804 326.425 201.891 326.91 202.107 327.326C202.333 327.733 202.636 328.05 203.017 328.275C203.407 328.5 203.823 328.613 204.265 328.613C204.777 328.613 205.206 328.492 205.552 328.249C205.899 328.006 206.181 327.703 206.397 327.339L207.229 327.781C207.091 328.093 206.878 328.383 206.592 328.652C206.306 328.912 205.964 329.124 205.565 329.289C205.175 329.445 204.742 329.523 204.265 329.523ZM211.509 329.523C210.842 329.523 210.257 329.354 209.754 329.016C209.252 328.678 208.888 328.219 208.662 327.638L209.481 327.248C209.681 327.673 209.958 328.011 210.313 328.262C210.677 328.513 211.076 328.639 211.509 328.639C211.925 328.639 212.276 328.539 212.562 328.34C212.848 328.132 212.991 327.863 212.991 327.534C212.991 327.291 212.922 327.101 212.783 326.962C212.645 326.815 212.484 326.702 212.302 326.624C212.12 326.546 211.96 326.49 211.821 326.455L210.82 326.169C210.179 325.987 209.715 325.731 209.429 325.402C209.143 325.073 209 324.691 209 324.258C209 323.851 209.104 323.495 209.312 323.192C209.52 322.889 209.802 322.655 210.157 322.49C210.513 322.325 210.907 322.243 211.34 322.243C211.93 322.243 212.463 322.399 212.939 322.711C213.425 323.014 213.767 323.439 213.966 323.985L213.134 324.375C212.961 323.985 212.71 323.682 212.38 323.465C212.06 323.24 211.7 323.127 211.301 323.127C210.911 323.127 210.599 323.227 210.365 323.426C210.131 323.625 210.014 323.877 210.014 324.18C210.014 324.414 210.075 324.6 210.196 324.739C210.318 324.878 210.456 324.982 210.612 325.051C210.777 325.12 210.92 325.172 211.041 325.207L212.198 325.545C212.762 325.71 213.199 325.965 213.511 326.312C213.832 326.659 213.992 327.066 213.992 327.534C213.992 327.915 213.884 328.258 213.667 328.561C213.459 328.864 213.169 329.103 212.796 329.276C212.424 329.441 211.995 329.523 211.509 329.523ZM218.124 329.523C217.456 329.523 216.871 329.354 216.369 329.016C215.866 328.678 215.502 328.219 215.277 327.638L216.096 327.248C216.295 327.673 216.572 328.011 216.928 328.262C217.292 328.513 217.69 328.639 218.124 328.639C218.54 328.639 218.891 328.539 219.177 328.34C219.463 328.132 219.606 327.863 219.606 327.534C219.606 327.291 219.536 327.101 219.398 326.962C219.259 326.815 219.099 326.702 218.917 326.624C218.735 326.546 218.574 326.49 218.436 326.455L217.435 326.169C216.793 325.987 216.33 325.731 216.044 325.402C215.758 325.073 215.615 324.691 215.615 324.258C215.615 323.851 215.719 323.495 215.927 323.192C216.135 322.889 216.416 322.655 216.772 322.49C217.127 322.325 217.521 322.243 217.955 322.243C218.544 322.243 219.077 322.399 219.554 322.711C220.039 323.014 220.381 323.439 220.581 323.985L219.749 324.375C219.575 323.985 219.324 323.682 218.995 323.465C218.674 323.24 218.314 323.127 217.916 323.127C217.526 323.127 217.214 323.227 216.98 323.426C216.746 323.625 216.629 323.877 216.629 324.18C216.629 324.414 216.689 324.6 216.811 324.739C216.932 324.878 217.071 324.982 217.227 325.051C217.391 325.12 217.534 325.172 217.656 325.207L218.813 325.545C219.376 325.71 219.814 325.965 220.126 326.312C220.446 326.659 220.607 327.066 220.607 327.534C220.607 327.915 220.498 328.258 220.282 328.561C220.074 328.864 219.783 329.103 219.411 329.276C219.038 329.441 218.609 329.523 218.124 329.523ZM224.335 329.523C223.893 329.523 223.499 329.441 223.152 329.276C222.805 329.103 222.532 328.869 222.333 328.574C222.134 328.279 222.034 327.941 222.034 327.56C222.034 327.196 222.112 326.867 222.268 326.572C222.424 326.269 222.667 326.013 222.996 325.805C223.325 325.597 223.746 325.45 224.257 325.363L226.987 324.908V325.792L224.491 326.208C223.988 326.295 223.624 326.455 223.399 326.689C223.182 326.923 223.074 327.2 223.074 327.521C223.074 327.833 223.195 328.097 223.438 328.314C223.689 328.531 224.01 328.639 224.4 328.639C224.877 328.639 225.293 328.539 225.648 328.34C226.003 328.132 226.281 327.855 226.48 327.508C226.679 327.161 226.779 326.776 226.779 326.351V324.583C226.779 324.167 226.627 323.829 226.324 323.569C226.021 323.309 225.626 323.179 225.141 323.179C224.716 323.179 224.344 323.287 224.023 323.504C223.702 323.712 223.464 323.985 223.308 324.323L222.424 323.842C222.554 323.547 222.758 323.279 223.035 323.036C223.321 322.793 223.646 322.603 224.01 322.464C224.374 322.317 224.751 322.243 225.141 322.243C225.652 322.243 226.103 322.343 226.493 322.542C226.892 322.741 227.199 323.019 227.416 323.374C227.641 323.721 227.754 324.124 227.754 324.583V329.367H226.779V327.976L226.922 328.119C226.801 328.379 226.61 328.617 226.35 328.834C226.099 329.042 225.8 329.211 225.453 329.341C225.115 329.462 224.742 329.523 224.335 329.523ZM233.061 332.227C232.585 332.227 232.143 332.153 231.735 332.006C231.337 331.859 230.99 331.655 230.695 331.395C230.409 331.144 230.188 330.849 230.032 330.511L230.929 330.03C231.068 330.359 231.315 330.645 231.67 330.888C232.026 331.131 232.481 331.252 233.035 331.252C233.46 331.252 233.85 331.17 234.205 331.005C234.561 330.84 234.847 330.598 235.063 330.277C235.28 329.956 235.388 329.562 235.388 329.094V327.547L235.544 327.69C235.302 328.193 234.942 328.583 234.465 328.86C233.989 329.129 233.469 329.263 232.905 329.263C232.255 329.263 231.67 329.107 231.15 328.795C230.63 328.483 230.219 328.063 229.915 327.534C229.621 326.997 229.473 326.403 229.473 325.753C229.473 325.094 229.621 324.501 229.915 323.972C230.219 323.443 230.626 323.023 231.137 322.711C231.657 322.399 232.247 322.243 232.905 322.243C233.469 322.243 233.98 322.373 234.439 322.633C234.907 322.893 235.276 323.244 235.544 323.686L235.388 323.959V322.399H236.363V329.094C236.363 329.692 236.22 330.225 235.934 330.693C235.657 331.17 235.267 331.542 234.764 331.811C234.27 332.088 233.703 332.227 233.061 332.227ZM232.957 328.288C233.408 328.288 233.815 328.175 234.179 327.95C234.543 327.716 234.834 327.408 235.05 327.027C235.276 326.637 235.388 326.212 235.388 325.753C235.388 325.294 235.276 324.873 235.05 324.492C234.834 324.102 234.543 323.794 234.179 323.569C233.815 323.335 233.408 323.218 232.957 323.218C232.498 323.218 232.082 323.335 231.709 323.569C231.337 323.794 231.042 324.098 230.825 324.479C230.617 324.86 230.513 325.285 230.513 325.753C230.513 326.212 230.617 326.637 230.825 327.027C231.042 327.408 231.332 327.716 231.696 327.95C232.069 328.175 232.489 328.288 232.957 328.288ZM241.539 329.523C240.889 329.523 240.299 329.367 239.771 329.055C239.251 328.734 238.839 328.297 238.536 327.742C238.232 327.187 238.081 326.559 238.081 325.857C238.081 325.155 238.228 324.535 238.523 323.998C238.817 323.452 239.216 323.023 239.719 322.711C240.23 322.399 240.802 322.243 241.435 322.243C241.937 322.243 242.384 322.338 242.774 322.529C243.172 322.711 243.51 322.962 243.788 323.283C244.065 323.595 244.277 323.95 244.425 324.349C244.572 324.739 244.646 325.142 244.646 325.558C244.646 325.645 244.641 325.744 244.633 325.857C244.624 325.961 244.611 326.069 244.594 326.182H238.705V325.272H244.035L243.567 325.662C243.645 325.185 243.588 324.761 243.398 324.388C243.216 324.007 242.951 323.708 242.605 323.491C242.258 323.266 241.868 323.153 241.435 323.153C241.001 323.153 240.598 323.266 240.226 323.491C239.862 323.716 239.576 324.033 239.368 324.44C239.16 324.839 239.077 325.315 239.121 325.87C239.077 326.425 239.164 326.91 239.381 327.326C239.606 327.733 239.909 328.05 240.291 328.275C240.681 328.5 241.097 328.613 241.539 328.613C242.05 328.613 242.479 328.492 242.826 328.249C243.172 328.006 243.454 327.703 243.671 327.339L244.503 327.781C244.364 328.093 244.152 328.383 243.866 328.652C243.58 328.912 243.237 329.124 242.839 329.289C242.449 329.445 242.015 329.523 241.539 329.523ZM248.574 329.367V319.526H249.549V323.751L249.328 323.699C249.501 323.248 249.783 322.893 250.173 322.633C250.571 322.373 251.031 322.243 251.551 322.243C252.045 322.243 252.487 322.356 252.877 322.581C253.275 322.806 253.587 323.118 253.813 323.517C254.047 323.907 254.164 324.349 254.164 324.843V329.367H253.189V325.22C253.189 324.795 253.111 324.436 252.955 324.141C252.799 323.846 252.582 323.621 252.305 323.465C252.036 323.3 251.728 323.218 251.382 323.218C251.035 323.218 250.723 323.3 250.446 323.465C250.168 323.621 249.947 323.851 249.783 324.154C249.627 324.449 249.549 324.804 249.549 325.22V329.367H248.574ZM259.198 329.523C258.548 329.523 257.959 329.367 257.43 329.055C256.91 328.734 256.498 328.297 256.195 327.742C255.892 327.187 255.74 326.559 255.74 325.857C255.74 325.155 255.887 324.535 256.182 323.998C256.477 323.452 256.875 323.023 257.378 322.711C257.889 322.399 258.461 322.243 259.094 322.243C259.597 322.243 260.043 322.338 260.433 322.529C260.832 322.711 261.17 322.962 261.447 323.283C261.724 323.595 261.937 323.95 262.084 324.349C262.231 324.739 262.305 325.142 262.305 325.558C262.305 325.645 262.301 325.744 262.292 325.857C262.283 325.961 262.27 326.069 262.253 326.182H256.364V325.272H261.694L261.226 325.662C261.304 325.185 261.248 324.761 261.057 324.388C260.875 324.007 260.611 323.708 260.264 323.491C259.917 323.266 259.527 323.153 259.094 323.153C258.661 323.153 258.258 323.266 257.885 323.491C257.521 323.716 257.235 324.033 257.027 324.44C256.819 324.839 256.737 325.315 256.78 325.87C256.737 326.425 256.823 326.91 257.04 327.326C257.265 327.733 257.569 328.05 257.95 328.275C258.34 328.5 258.756 328.613 259.198 328.613C259.709 328.613 260.138 328.492 260.485 328.249C260.832 328.006 261.113 327.703 261.33 327.339L262.162 327.781C262.023 328.093 261.811 328.383 261.525 328.652C261.239 328.912 260.897 329.124 260.498 329.289C260.108 329.445 259.675 329.523 259.198 329.523ZM264.024 329.367V322.399H264.999V323.543L264.869 323.374C265.034 323.045 265.281 322.785 265.61 322.594C265.948 322.403 266.355 322.308 266.832 322.308H267.274V323.283H266.663C266.16 323.283 265.757 323.439 265.454 323.751C265.151 324.063 264.999 324.505 264.999 325.077V329.367H264.024ZM271.589 329.523C270.939 329.523 270.349 329.367 269.821 329.055C269.301 328.734 268.889 328.297 268.586 327.742C268.282 327.187 268.131 326.559 268.131 325.857C268.131 325.155 268.278 324.535 268.573 323.998C268.867 323.452 269.266 323.023 269.769 322.711C270.28 322.399 270.852 322.243 271.485 322.243C271.987 322.243 272.434 322.338 272.824 322.529C273.222 322.711 273.56 322.962 273.838 323.283C274.115 323.595 274.327 323.95 274.475 324.349C274.622 324.739 274.696 325.142 274.696 325.558C274.696 325.645 274.691 325.744 274.683 325.857C274.674 325.961 274.661 326.069 274.644 326.182H268.755V325.272H274.085L273.617 325.662C273.695 325.185 273.638 324.761 273.448 324.388C273.266 324.007 273.001 323.708 272.655 323.491C272.308 323.266 271.918 323.153 271.485 323.153C271.051 323.153 270.648 323.266 270.276 323.491C269.912 323.716 269.626 324.033 269.418 324.44C269.21 324.839 269.127 325.315 269.171 325.87C269.127 326.425 269.214 326.91 269.431 327.326C269.656 327.733 269.959 328.05 270.341 328.275C270.731 328.5 271.147 328.613 271.589 328.613C272.1 328.613 272.529 328.492 272.876 328.249C273.222 328.006 273.504 327.703 273.721 327.339L274.553 327.781C274.414 328.093 274.202 328.383 273.916 328.652C273.63 328.912 273.287 329.124 272.889 329.289C272.499 329.445 272.065 329.523 271.589 329.523Z" fill="#454545"/>
<path d="M306.238 305.367L296.238 315.367M296.238 305.367L306.238 315.367" stroke="#979FA9" stroke-width="1.5" stroke-linecap="round"/>
</g>
<defs>
<filter id="filter0_d_12_897" x="33.3729" y="144.94" width="327.73" height="131.943" filterUnits="userSpaceOnUse" color-interpolation-filters="sRGB">
<feFlood flood-opacity="0" result="BackgroundImageFix"/>
<feColorMatrix in="SourceAlpha" type="matrix" values="0 0 0 0 0 0 0 0 0 0 0 0 0 0 0 0 0 0 127 0" result="hardAlpha"/>
<feOffset dy="4"/>
<feGaussianBlur stdDeviation="7.4"/>
<feComposite in2="hardAlpha" operator="out"/>
<feColorMatrix type="matrix" values="0 0 0 0 0 0 0 0 0 0 0 0 0 0 0 0 0 0 0.15 0"/>
<feBlend mode="normal" in2="BackgroundImageFix" result="effect1_dropShadow_12_897"/>
<feBlend mode="normal" in="SourceGraphic" in2="effect1_dropShadow_12_897" result="shape"/>
</filter>
<filter id="filter1_d_12_897" x="14.4617" y="194.999" width="365.553" height="131.943" filterUnits="userSpaceOnUse" color-interpolation-filters="sRGB">
<feFlood flood-opacity="0" result="BackgroundImageFix"/>
<feColorMatrix in="SourceAlpha" type="matrix" values="0 0 0 0 0 0 0 0 0 0 0 0 0 0 0 0 0 0 127 0" result="hardAlpha"/>
<feOffset dy="4"/>
<feGaussianBlur stdDeviation="7.4"/>
<feComposite in2="hardAlpha" operator="out"/>
<feColorMatrix type="matrix" values="0 0 0 0 0 0 0 0 0 0 0 0 0 0 0 0 0 0 0.15 0"/>
<feBlend mode="normal" in2="BackgroundImageFix" result="effect1_dropShadow_12_897"/>
<feBlend mode="normal" in="SourceGraphic" in2="effect1_dropShadow_12_897" result="shape"/>
</filter>
<filter id="filter2_d_12_897" x="4.86374e-05" y="248.395" width="394.476" height="131.943" filterUnits="userSpaceOnUse" color-interpolation-filters="sRGB">
<feFlood flood-opacity="0" result="BackgroundImageFix"/>
<feColorMatrix in="SourceAlpha" type="matrix" values="0 0 0 0 0 0 0 0 0 0 0 0 0 0 0 0 0 0 127 0" result="hardAlpha"/>
<feOffset dy="4"/>
<feGaussianBlur stdDeviation="7.4"/>
<feComposite in2="hardAlpha" operator="out"/>
<feColorMatrix type="matrix" values="0 0 0 0 0 0 0 0 0 0 0 0 0 0 0 0 0 0 0.15 0"/>
<feBlend mode="normal" in2="BackgroundImageFix" result="effect1_dropShadow_12_897"/>
<feBlend mode="normal" in="SourceGraphic" in2="effect1_dropShadow_12_897" result="shape"/>
</filter>
<linearGradient id="paint0_linear_12_897" x1="96.238" y1="194.911" x2="96.238" y2="218.911" gradientUnits="userSpaceOnUse">
<stop stop-color="#48CA93"/>
<stop offset="1" stop-color="#48BACA"/>
</linearGradient>
<linearGradient id="paint1_linear_12_897" x1="96.238" y1="244.97" x2="96.238" y2="268.97" gradientUnits="userSpaceOnUse">
<stop stop-color="#48CA93"/>
<stop offset="1" stop-color="#48BACA"/>
</linearGradient>
<linearGradient id="paint2_linear_12_897" x1="96.2378" y1="298.367" x2="96.2378" y2="322.367" gradientUnits="userSpaceOnUse">
<stop stop-color="#48CA93"/>
<stop offset="1" stop-color="#48BACA"/>
</linearGradient>
</defs>
</svg>
