<svg width="183" height="83" viewBox="0 0 183 83" fill="none" xmlns="http://www.w3.org/2000/svg">
<path d="M29.916 35.3038L21.8299 33.8087L16.4819 40.0049L19.217 47.6962L27.3031 49.1913L32.6511 42.9951L29.916 35.3038Z" fill="#2DAAE1"/>
<path d="M6.51881 19.1707L49.133 0L0.12207 40.847L6.51881 19.1707Z" fill="#2DAAE1"/>
<path d="M42.6141 63.8293L0 83L49.0109 42.15L42.6141 63.8293Z" fill="#2DAAE1"/>
<path d="M64.623 61.7019C61.6436 59.1608 60.0298 55.5491 59.7815 50.8667H65.0491C65.3291 54.1918 66.5288 56.6926 68.6482 58.3689C70.7675 60.0453 73.582 60.8864 77.0917 60.8923C80.238 60.8923 82.8102 60.2718 84.8084 59.0308C86.8065 57.7898 87.8046 56.0494 87.8027 53.8097C87.825 53.0735 87.6971 52.3405 87.4268 51.6545C87.1565 50.9686 86.7493 50.3438 86.2295 49.8178C85.0487 48.6749 83.6359 47.7945 82.0852 47.2353C79.8761 46.4226 77.6232 45.7321 75.3369 45.1669C72.8307 44.5338 70.3652 43.7513 67.954 42.8238C66.1012 42.1004 64.456 40.9365 63.1631 39.4346C61.87 37.9336 61.2245 35.9431 61.2265 33.463C61.2265 29.8621 62.6169 27.0403 65.3976 24.9975C68.1784 22.9548 71.8292 21.9354 76.3499 21.9393C81.2321 21.9393 84.9742 23.0691 87.5762 25.3285C90.1782 27.5879 91.6212 30.6195 91.9053 34.4233H86.7748C86.451 31.7443 85.433 29.7528 83.7209 28.4487C82.0087 27.1447 79.5577 26.4946 76.3678 26.4986C73.301 26.4986 70.9006 27.0295 69.1666 28.0912C67.4326 29.153 66.5646 30.7426 66.5626 32.8602C66.5429 33.5248 66.6589 34.1865 66.9036 34.8055C67.1484 35.4245 67.5168 35.988 67.9867 36.4621C69.047 37.4943 70.3151 38.2927 71.708 38.8053C73.2414 39.3962 75.2991 40.0561 77.8813 40.785C80.7057 41.5152 83.4762 42.4373 86.1729 43.5448C88.1451 44.347 89.8972 45.6016 91.2856 47.2057C92.5568 48.7284 93.1924 50.6697 93.1924 53.0296C93.244 55.3835 92.5454 57.6934 91.1962 59.6306C89.8654 61.5138 87.9685 62.9646 85.5055 63.983C83.0426 65.0014 80.1625 65.5116 76.8653 65.5136C71.6891 65.5136 67.6084 64.243 64.623 61.7019Z" fill="white"/>
<path d="M103.629 63.5014C101.479 62.1742 99.7647 60.2554 98.6951 57.9788C97.5377 55.5084 96.9592 52.8103 97.0028 50.0866C96.9641 47.3798 97.5543 44.7005 98.7278 42.2564C99.8096 39.9893 101.507 38.0657 103.629 36.7014C105.748 35.3422 108.24 34.6626 111.104 34.6626C115.54 34.6626 118.916 36.1331 121.234 39.0741C123.552 42.0151 124.712 46.0868 124.714 51.2892H101.963C102.043 54.1711 102.87 56.5418 104.445 58.4014C106.02 60.2609 108.32 61.1907 111.346 61.1907C113.562 61.1907 115.35 60.6805 116.708 59.6601C118.034 58.6707 118.98 57.2626 119.39 55.6682H124.294C123.594 58.4674 122.009 60.971 119.771 62.8129C117.551 64.6114 114.726 65.5116 111.298 65.5136C108.344 65.5136 105.788 64.8428 103.629 63.5014ZM117.278 41.1454C115.863 39.7035 113.806 38.9825 111.104 38.9825C108.48 38.9825 106.423 39.7035 104.931 41.1454C103.439 42.5873 102.491 44.6311 102.086 47.2766H119.697C119.494 44.6291 118.688 42.5854 117.278 41.1454Z" fill="white"/>
<path d="M129.803 35.3836H134.767V39.5942H134.886C135.837 38.0436 137.185 36.7696 138.792 35.9007C140.386 35.0716 142.164 34.6492 143.964 34.6715C147.233 34.6715 149.836 35.5914 151.773 37.4313C153.71 39.2711 154.678 41.8122 154.678 45.0546V64.8015H149.714V45.7135C149.714 43.395 149.039 41.7049 147.688 40.6431C146.377 39.5972 144.741 39.0353 143.058 39.0534C141.573 39.0347 140.112 39.4266 138.839 40.1851C137.622 40.8999 136.599 41.8991 135.86 43.0956C135.17 44.162 134.793 45.398 134.773 46.665V64.7926H129.803V35.3836Z" fill="white"/>
<path d="M164.057 63.6224C162.766 62.3617 162.12 60.3111 162.12 57.4706V39.5941H158.31V35.3835H162.12V26.5605H167.084V35.3835H172.894V39.5941H167.084V57.7188C167.084 58.8386 167.334 59.6807 167.841 60.2392C168.089 60.5141 168.392 60.7349 168.73 60.8875C169.069 61.0401 169.435 61.1212 169.807 61.1256C170.414 61.1638 171.022 61.144 171.625 61.0665C172.113 61.0141 172.597 60.9332 173.076 60.8242V64.9078C171.845 65.3073 170.557 65.5069 169.262 65.4987C167.085 65.5086 165.35 64.8831 164.057 63.6224Z" fill="white"/>
<path d="M178.039 22.7784H183V28.5994H178.039V22.7784ZM178.039 35.3836H183V64.7926H178.039V35.3836Z" fill="white"/>
</svg>
